<?xml version="1.0" encoding="utf-8" standalone="no"?>
<!DOCTYPE svg PUBLIC "-//W3C//DTD SVG 1.1//EN"
  "http://www.w3.org/Graphics/SVG/1.1/DTD/svg11.dtd">
<svg xmlns:xlink="http://www.w3.org/1999/xlink" width="952.160937pt" height="543.71625pt" viewBox="0 0 952.160937 543.71625" xmlns="http://www.w3.org/2000/svg" version="1.1">
 <metadata>
  <rdf:RDF xmlns:dc="http://purl.org/dc/elements/1.1/" xmlns:cc="http://creativecommons.org/ns#" xmlns:rdf="http://www.w3.org/1999/02/22-rdf-syntax-ns#">
   <cc:Work>
    <dc:type rdf:resource="http://purl.org/dc/dcmitype/StillImage"/>
    <dc:date>2026-05-20T21:09:01.007722</dc:date>
    <dc:format>image/svg+xml</dc:format>
    <dc:creator>
     <cc:Agent>
      <dc:title>Matplotlib v3.10.9, https://matplotlib.org/</dc:title>
     </cc:Agent>
    </dc:creator>
   </cc:Work>
  </rdf:RDF>
 </metadata>
 <defs>
  <style type="text/css">*{stroke-linejoin: round; stroke-linecap: butt}</style>
 </defs>
 <g id="figure_1">
  <g id="patch_1">
   <path d="M 0 543.71625 
L 952.160937 543.71625 
L 952.160937 0 
L 0 0 
L 0 543.71625 
z
" style="fill: none"/>
  </g>
  <g id="axes_1">
   <g id="patch_2">
    <path d="M 52.160938 506.16 
L 944.960938 506.16 
L 944.960938 7.2 
L 52.160938 7.2 
L 52.160938 506.16 
z
" style="fill: none"/>
   </g>
   <g id="matplotlib.axis_1">
    <g id="xtick_1">
     <g id="line2d_1">
      <path d="M 92.742756 506.16 
L 92.742756 7.2 
" clip-path="url(#pa9c72b2d5e)" style="fill: none; stroke: #b0b0b0; stroke-width: 0.8; stroke-linecap: square"/>
     </g>
     <g id="line2d_2">
      <defs>
       <path id="m8d950c6b2f" d="M 0 0 
L 0 3.5 
" style="stroke: #000000; stroke-width: 0.8"/>
      </defs>
      <g>
       <use xlink:href="#m8d950c6b2f" x="92.742756" y="506.16" style="stroke: #000000; stroke-width: 0.8"/>
      </g>
     </g>
     <g id="text_1">
      <!-- 0.0 -->
      <g transform="translate(84.791193 520.758438) scale(0.1 -0.1)">
       <defs>
        <path id="DejaVuSans-30" d="M 2034 4250 
Q 1547 4250 1301 3770 
Q 1056 3291 1056 2328 
Q 1056 1369 1301 889 
Q 1547 409 2034 409 
Q 2525 409 2770 889 
Q 3016 1369 3016 2328 
Q 3016 3291 2770 3770 
Q 2525 4250 2034 4250 
z
M 2034 4750 
Q 2819 4750 3233 4129 
Q 3647 3509 3647 2328 
Q 3647 1150 3233 529 
Q 2819 -91 2034 -91 
Q 1250 -91 836 529 
Q 422 1150 422 2328 
Q 422 3509 836 4129 
Q 1250 4750 2034 4750 
z
" transform="scale(0.015625)"/>
        <path id="DejaVuSans-2e" d="M 684 794 
L 1344 794 
L 1344 0 
L 684 0 
L 684 794 
z
" transform="scale(0.015625)"/>
       </defs>
       <use xlink:href="#DejaVuSans-30"/>
       <use xlink:href="#DejaVuSans-2e" transform="translate(63.623047 0)"/>
       <use xlink:href="#DejaVuSans-30" transform="translate(95.410156 0)"/>
      </g>
     </g>
    </g>
    <g id="xtick_2">
     <g id="line2d_3">
      <path d="M 255.070028 506.16 
L 255.070028 7.2 
" clip-path="url(#pa9c72b2d5e)" style="fill: none; stroke: #b0b0b0; stroke-width: 0.8; stroke-linecap: square"/>
     </g>
     <g id="line2d_4">
      <g>
       <use xlink:href="#m8d950c6b2f" x="255.070028" y="506.16" style="stroke: #000000; stroke-width: 0.8"/>
      </g>
     </g>
     <g id="text_2">
      <!-- 0.2 -->
      <g transform="translate(247.118466 520.758438) scale(0.1 -0.1)">
       <defs>
        <path id="DejaVuSans-32" d="M 1228 531 
L 3431 531 
L 3431 0 
L 469 0 
L 469 531 
Q 828 903 1448 1529 
Q 2069 2156 2228 2338 
Q 2531 2678 2651 2914 
Q 2772 3150 2772 3378 
Q 2772 3750 2511 3984 
Q 2250 4219 1831 4219 
Q 1534 4219 1204 4116 
Q 875 4013 500 3803 
L 500 4441 
Q 881 4594 1212 4672 
Q 1544 4750 1819 4750 
Q 2544 4750 2975 4387 
Q 3406 4025 3406 3419 
Q 3406 3131 3298 2873 
Q 3191 2616 2906 2266 
Q 2828 2175 2409 1742 
Q 1991 1309 1228 531 
z
" transform="scale(0.015625)"/>
       </defs>
       <use xlink:href="#DejaVuSans-30"/>
       <use xlink:href="#DejaVuSans-2e" transform="translate(63.623047 0)"/>
       <use xlink:href="#DejaVuSans-32" transform="translate(95.410156 0)"/>
      </g>
     </g>
    </g>
    <g id="xtick_3">
     <g id="line2d_5">
      <path d="M 417.397301 506.16 
L 417.397301 7.2 
" clip-path="url(#pa9c72b2d5e)" style="fill: none; stroke: #b0b0b0; stroke-width: 0.8; stroke-linecap: square"/>
     </g>
     <g id="line2d_6">
      <g>
       <use xlink:href="#m8d950c6b2f" x="417.397301" y="506.16" style="stroke: #000000; stroke-width: 0.8"/>
      </g>
     </g>
     <g id="text_3">
      <!-- 0.4 -->
      <g transform="translate(409.445739 520.758438) scale(0.1 -0.1)">
       <defs>
        <path id="DejaVuSans-34" d="M 2419 4116 
L 825 1625 
L 2419 1625 
L 2419 4116 
z
M 2253 4666 
L 3047 4666 
L 3047 1625 
L 3713 1625 
L 3713 1100 
L 3047 1100 
L 3047 0 
L 2419 0 
L 2419 1100 
L 313 1100 
L 313 1709 
L 2253 4666 
z
" transform="scale(0.015625)"/>
       </defs>
       <use xlink:href="#DejaVuSans-30"/>
       <use xlink:href="#DejaVuSans-2e" transform="translate(63.623047 0)"/>
       <use xlink:href="#DejaVuSans-34" transform="translate(95.410156 0)"/>
      </g>
     </g>
    </g>
    <g id="xtick_4">
     <g id="line2d_7">
      <path d="M 579.724574 506.16 
L 579.724574 7.2 
" clip-path="url(#pa9c72b2d5e)" style="fill: none; stroke: #b0b0b0; stroke-width: 0.8; stroke-linecap: square"/>
     </g>
     <g id="line2d_8">
      <g>
       <use xlink:href="#m8d950c6b2f" x="579.724574" y="506.16" style="stroke: #000000; stroke-width: 0.8"/>
      </g>
     </g>
     <g id="text_4">
      <!-- 0.6 -->
      <g transform="translate(571.773011 520.758438) scale(0.1 -0.1)">
       <defs>
        <path id="DejaVuSans-36" d="M 2113 2584 
Q 1688 2584 1439 2293 
Q 1191 2003 1191 1497 
Q 1191 994 1439 701 
Q 1688 409 2113 409 
Q 2538 409 2786 701 
Q 3034 994 3034 1497 
Q 3034 2003 2786 2293 
Q 2538 2584 2113 2584 
z
M 3366 4563 
L 3366 3988 
Q 3128 4100 2886 4159 
Q 2644 4219 2406 4219 
Q 1781 4219 1451 3797 
Q 1122 3375 1075 2522 
Q 1259 2794 1537 2939 
Q 1816 3084 2150 3084 
Q 2853 3084 3261 2657 
Q 3669 2231 3669 1497 
Q 3669 778 3244 343 
Q 2819 -91 2113 -91 
Q 1303 -91 875 529 
Q 447 1150 447 2328 
Q 447 3434 972 4092 
Q 1497 4750 2381 4750 
Q 2619 4750 2861 4703 
Q 3103 4656 3366 4563 
z
" transform="scale(0.015625)"/>
       </defs>
       <use xlink:href="#DejaVuSans-30"/>
       <use xlink:href="#DejaVuSans-2e" transform="translate(63.623047 0)"/>
       <use xlink:href="#DejaVuSans-36" transform="translate(95.410156 0)"/>
      </g>
     </g>
    </g>
    <g id="xtick_5">
     <g id="line2d_9">
      <path d="M 742.051847 506.16 
L 742.051847 7.2 
" clip-path="url(#pa9c72b2d5e)" style="fill: none; stroke: #b0b0b0; stroke-width: 0.8; stroke-linecap: square"/>
     </g>
     <g id="line2d_10">
      <g>
       <use xlink:href="#m8d950c6b2f" x="742.051847" y="506.16" style="stroke: #000000; stroke-width: 0.8"/>
      </g>
     </g>
     <g id="text_5">
      <!-- 0.8 -->
      <g transform="translate(734.100284 520.758438) scale(0.1 -0.1)">
       <defs>
        <path id="DejaVuSans-38" d="M 2034 2216 
Q 1584 2216 1326 1975 
Q 1069 1734 1069 1313 
Q 1069 891 1326 650 
Q 1584 409 2034 409 
Q 2484 409 2743 651 
Q 3003 894 3003 1313 
Q 3003 1734 2745 1975 
Q 2488 2216 2034 2216 
z
M 1403 2484 
Q 997 2584 770 2862 
Q 544 3141 544 3541 
Q 544 4100 942 4425 
Q 1341 4750 2034 4750 
Q 2731 4750 3128 4425 
Q 3525 4100 3525 3541 
Q 3525 3141 3298 2862 
Q 3072 2584 2669 2484 
Q 3125 2378 3379 2068 
Q 3634 1759 3634 1313 
Q 3634 634 3220 271 
Q 2806 -91 2034 -91 
Q 1263 -91 848 271 
Q 434 634 434 1313 
Q 434 1759 690 2068 
Q 947 2378 1403 2484 
z
M 1172 3481 
Q 1172 3119 1398 2916 
Q 1625 2713 2034 2713 
Q 2441 2713 2670 2916 
Q 2900 3119 2900 3481 
Q 2900 3844 2670 4047 
Q 2441 4250 2034 4250 
Q 1625 4250 1398 4047 
Q 1172 3844 1172 3481 
z
" transform="scale(0.015625)"/>
       </defs>
       <use xlink:href="#DejaVuSans-30"/>
       <use xlink:href="#DejaVuSans-2e" transform="translate(63.623047 0)"/>
       <use xlink:href="#DejaVuSans-38" transform="translate(95.410156 0)"/>
      </g>
     </g>
    </g>
    <g id="xtick_6">
     <g id="line2d_11">
      <path d="M 904.379119 506.16 
L 904.379119 7.2 
" clip-path="url(#pa9c72b2d5e)" style="fill: none; stroke: #b0b0b0; stroke-width: 0.8; stroke-linecap: square"/>
     </g>
     <g id="line2d_12">
      <g>
       <use xlink:href="#m8d950c6b2f" x="904.379119" y="506.16" style="stroke: #000000; stroke-width: 0.8"/>
      </g>
     </g>
     <g id="text_6">
      <!-- 1.0 -->
      <g transform="translate(896.427557 520.758438) scale(0.1 -0.1)">
       <defs>
        <path id="DejaVuSans-31" d="M 794 531 
L 1825 531 
L 1825 4091 
L 703 3866 
L 703 4441 
L 1819 4666 
L 2450 4666 
L 2450 531 
L 3481 531 
L 3481 0 
L 794 0 
L 794 531 
z
" transform="scale(0.015625)"/>
       </defs>
       <use xlink:href="#DejaVuSans-31"/>
       <use xlink:href="#DejaVuSans-2e" transform="translate(63.623047 0)"/>
       <use xlink:href="#DejaVuSans-30" transform="translate(95.410156 0)"/>
      </g>
     </g>
    </g>
    <g id="text_7">
     <!-- $x$ -->
     <g transform="translate(495.560938 534.436563) scale(0.1 -0.1)">
      <defs>
       <path id="DejaVuSans-Oblique-78" d="M 3841 3500 
L 2234 1784 
L 3219 0 
L 2559 0 
L 1819 1388 
L 531 0 
L -166 0 
L 1556 1844 
L 641 3500 
L 1300 3500 
L 1972 2234 
L 3144 3500 
L 3841 3500 
z
" transform="scale(0.015625)"/>
      </defs>
      <use xlink:href="#DejaVuSans-Oblique-78" transform="translate(0 0.3125)"/>
     </g>
    </g>
   </g>
   <g id="matplotlib.axis_2">
    <g id="ytick_1">
     <g id="line2d_13">
      <path d="M 52.160938 450.168858 
L 944.960938 450.168858 
" clip-path="url(#pa9c72b2d5e)" style="fill: none; stroke: #b0b0b0; stroke-width: 0.8; stroke-linecap: square"/>
     </g>
     <g id="line2d_14">
      <defs>
       <path id="m796e990843" d="M 0 0 
L -3.5 0 
" style="stroke: #000000; stroke-width: 0.8"/>
      </defs>
      <g>
       <use xlink:href="#m796e990843" x="52.160938" y="450.168858" style="stroke: #000000; stroke-width: 0.8"/>
      </g>
     </g>
     <g id="text_8">
      <!-- −0.2 -->
      <g transform="translate(20.878125 453.968077) scale(0.1 -0.1)">
       <defs>
        <path id="DejaVuSans-2212" d="M 678 2272 
L 4684 2272 
L 4684 1741 
L 678 1741 
L 678 2272 
z
" transform="scale(0.015625)"/>
       </defs>
       <use xlink:href="#DejaVuSans-2212"/>
       <use xlink:href="#DejaVuSans-30" transform="translate(83.789062 0)"/>
       <use xlink:href="#DejaVuSans-2e" transform="translate(147.412109 0)"/>
       <use xlink:href="#DejaVuSans-32" transform="translate(179.199219 0)"/>
      </g>
     </g>
    </g>
    <g id="ytick_2">
     <g id="line2d_15">
      <path d="M 52.160938 369.005222 
L 944.960938 369.005222 
" clip-path="url(#pa9c72b2d5e)" style="fill: none; stroke: #b0b0b0; stroke-width: 0.8; stroke-linecap: square"/>
     </g>
     <g id="line2d_16">
      <g>
       <use xlink:href="#m796e990843" x="52.160938" y="369.005222" style="stroke: #000000; stroke-width: 0.8"/>
      </g>
     </g>
     <g id="text_9">
      <!-- −0.1 -->
      <g transform="translate(20.878125 372.804441) scale(0.1 -0.1)">
       <use xlink:href="#DejaVuSans-2212"/>
       <use xlink:href="#DejaVuSans-30" transform="translate(83.789062 0)"/>
       <use xlink:href="#DejaVuSans-2e" transform="translate(147.412109 0)"/>
       <use xlink:href="#DejaVuSans-31" transform="translate(179.199219 0)"/>
      </g>
     </g>
    </g>
    <g id="ytick_3">
     <g id="line2d_17">
      <path d="M 52.160938 287.841586 
L 944.960938 287.841586 
" clip-path="url(#pa9c72b2d5e)" style="fill: none; stroke: #b0b0b0; stroke-width: 0.8; stroke-linecap: square"/>
     </g>
     <g id="line2d_18">
      <g>
       <use xlink:href="#m796e990843" x="52.160938" y="287.841586" style="stroke: #000000; stroke-width: 0.8"/>
      </g>
     </g>
     <g id="text_10">
      <!-- 0.0 -->
      <g transform="translate(29.257813 291.640804) scale(0.1 -0.1)">
       <use xlink:href="#DejaVuSans-30"/>
       <use xlink:href="#DejaVuSans-2e" transform="translate(63.623047 0)"/>
       <use xlink:href="#DejaVuSans-30" transform="translate(95.410156 0)"/>
      </g>
     </g>
    </g>
    <g id="ytick_4">
     <g id="line2d_19">
      <path d="M 52.160938 206.677949 
L 944.960938 206.677949 
" clip-path="url(#pa9c72b2d5e)" style="fill: none; stroke: #b0b0b0; stroke-width: 0.8; stroke-linecap: square"/>
     </g>
     <g id="line2d_20">
      <g>
       <use xlink:href="#m796e990843" x="52.160938" y="206.677949" style="stroke: #000000; stroke-width: 0.8"/>
      </g>
     </g>
     <g id="text_11">
      <!-- 0.1 -->
      <g transform="translate(29.257813 210.477168) scale(0.1 -0.1)">
       <use xlink:href="#DejaVuSans-30"/>
       <use xlink:href="#DejaVuSans-2e" transform="translate(63.623047 0)"/>
       <use xlink:href="#DejaVuSans-31" transform="translate(95.410156 0)"/>
      </g>
     </g>
    </g>
    <g id="ytick_5">
     <g id="line2d_21">
      <path d="M 52.160938 125.514313 
L 944.960938 125.514313 
" clip-path="url(#pa9c72b2d5e)" style="fill: none; stroke: #b0b0b0; stroke-width: 0.8; stroke-linecap: square"/>
     </g>
     <g id="line2d_22">
      <g>
       <use xlink:href="#m796e990843" x="52.160938" y="125.514313" style="stroke: #000000; stroke-width: 0.8"/>
      </g>
     </g>
     <g id="text_12">
      <!-- 0.2 -->
      <g transform="translate(29.257813 129.313532) scale(0.1 -0.1)">
       <use xlink:href="#DejaVuSans-30"/>
       <use xlink:href="#DejaVuSans-2e" transform="translate(63.623047 0)"/>
       <use xlink:href="#DejaVuSans-32" transform="translate(95.410156 0)"/>
      </g>
     </g>
    </g>
    <g id="ytick_6">
     <g id="line2d_23">
      <path d="M 52.160938 44.350677 
L 944.960938 44.350677 
" clip-path="url(#pa9c72b2d5e)" style="fill: none; stroke: #b0b0b0; stroke-width: 0.8; stroke-linecap: square"/>
     </g>
     <g id="line2d_24">
      <g>
       <use xlink:href="#m796e990843" x="52.160938" y="44.350677" style="stroke: #000000; stroke-width: 0.8"/>
      </g>
     </g>
     <g id="text_13">
      <!-- 0.3 -->
      <g transform="translate(29.257813 48.149895) scale(0.1 -0.1)">
       <defs>
        <path id="DejaVuSans-33" d="M 2597 2516 
Q 3050 2419 3304 2112 
Q 3559 1806 3559 1356 
Q 3559 666 3084 287 
Q 2609 -91 1734 -91 
Q 1441 -91 1130 -33 
Q 819 25 488 141 
L 488 750 
Q 750 597 1062 519 
Q 1375 441 1716 441 
Q 2309 441 2620 675 
Q 2931 909 2931 1356 
Q 2931 1769 2642 2001 
Q 2353 2234 1838 2234 
L 1294 2234 
L 1294 2753 
L 1863 2753 
Q 2328 2753 2575 2939 
Q 2822 3125 2822 3475 
Q 2822 3834 2567 4026 
Q 2313 4219 1838 4219 
Q 1578 4219 1281 4162 
Q 984 4106 628 3988 
L 628 4550 
Q 988 4650 1302 4700 
Q 1616 4750 1894 4750 
Q 2613 4750 3031 4423 
Q 3450 4097 3450 3541 
Q 3450 3153 3228 2886 
Q 3006 2619 2597 2516 
z
" transform="scale(0.015625)"/>
       </defs>
       <use xlink:href="#DejaVuSans-30"/>
       <use xlink:href="#DejaVuSans-2e" transform="translate(63.623047 0)"/>
       <use xlink:href="#DejaVuSans-33" transform="translate(95.410156 0)"/>
      </g>
     </g>
    </g>
    <g id="text_14">
     <!-- $y$ -->
     <g transform="translate(14.778125 259.68) rotate(-90) scale(0.1 -0.1)">
      <defs>
       <path id="DejaVuSans-Oblique-79" d="M 1588 -325 
Q 1188 -997 936 -1164 
Q 684 -1331 294 -1331 
L -159 -1331 
L -63 -850 
L 269 -850 
Q 509 -850 678 -719 
Q 847 -588 1056 -206 
L 1234 128 
L 459 3500 
L 1069 3500 
L 1650 819 
L 3256 3500 
L 3859 3500 
L 1588 -325 
z
" transform="scale(0.015625)"/>
      </defs>
      <use xlink:href="#DejaVuSans-Oblique-79" transform="translate(0 0.3125)"/>
     </g>
    </g>
   </g>
   <g id="line2d_25">
    <path d="M 904.379119 287.841586 
L 898.844288 284.656113 
L 882.390771 275.062543 
L 855.467376 264.258807 
L 818.808504 253.090221 
L 773.414113 241.431828 
L 720.522445 229.839552 
L 661.576244 218.795774 
L 598.183412 208.868889 
L 532.073137 200.616111 
L 465.048738 194.52924 
L 398.938463 191.128959 
L 335.545631 190.839184 
L 276.59943 194.128747 
L 223.707762 201.304997 
L 178.313371 212.553952 
L 141.654499 227.914863 
L 114.731104 247.049236 
L 98.277587 268.65147 
L 92.742756 287.841586 
L 98.277587 302.784704 
L 114.731104 313.865878 
L 141.654499 320.580511 
L 178.313371 322.520816 
L 223.707762 320.600321 
L 276.59943 315.874201 
L 335.545631 309.33764 
L 398.938463 301.897483 
L 465.048738 294.462338 
L 532.073137 287.754989 
L 598.183412 282.34126 
L 661.576244 278.564473 
L 720.522445 276.6064 
L 773.414113 276.497096 
L 818.808504 277.993483 
L 855.467376 280.839207 
L 882.390771 284.347304 
L 898.844288 286.743979 
L 904.379119 287.841586 
" clip-path="url(#pa9c72b2d5e)" style="fill: none; stroke: #1f77b4; stroke-width: 1.5; stroke-linecap: square"/>
   </g>
   <g id="line2d_26">
    <path d="M 904.379119 287.841465 
L 898.844288 284.660428 
L 882.390771 275.082082 
L 855.467376 264.293616 
L 818.808504 253.142206 
L 773.414113 241.504647 
L 720.522445 229.936277 
L 661.576244 218.91902 
L 598.183412 209.020053 
L 532.073137 200.795117 
L 465.048738 194.73431 
L 398.938463 191.356122 
L 335.545631 191.082193 
L 276.59943 194.378537 
L 223.707762 201.54994 
L 178.313371 212.779914 
L 141.654499 228.105337 
L 114.731104 247.186518 
L 98.277587 268.721584 
L 92.742756 287.841586 
L 98.277587 302.71446 
L 114.731104 313.728892 
L 141.654499 320.390763 
L 178.313371 322.295901 
L 223.707762 320.356642 
L 276.59943 315.625857 
L 335.545631 309.096317 
L 398.938463 301.672393 
L 465.048738 294.259819 
L 532.073137 287.57895 
L 598.183412 282.193335 
L 661.576244 278.4446 
L 720.522445 276.513006 
L 773.414113 276.427385 
L 818.808504 277.944183 
L 855.467376 280.806453 
L 882.390771 284.328956 
L 898.844288 286.739981 
L 904.379119 287.841706 
" clip-path="url(#pa9c72b2d5e)" style="fill: none; stroke: #ff7f0e; stroke-width: 1.5; stroke-linecap: square"/>
   </g>
   <g id="line2d_27">
    <path d="M 904.379119 287.839706 
L 898.844288 284.67379 
L 882.390771 275.146583 
L 855.467376 264.407602 
L 818.808504 253.309051 
L 773.414113 241.733965 
L 720.522445 230.236318 
L 661.576244 219.296987 
L 598.183412 209.479641 
L 532.073137 201.336078 
L 465.048738 195.351439 
L 398.938463 192.038027 
L 335.545631 191.811536 
L 276.59943 195.129629 
L 223.707762 202.288523 
L 178.313371 213.463255 
L 141.654499 228.682064 
L 114.731104 247.601479 
L 98.277587 268.933304 
L 92.742756 287.841586 
L 98.277587 302.500829 
L 114.731104 313.318315 
L 141.654499 319.824766 
L 178.313371 321.62804 
L 223.707762 319.636737 
L 276.59943 314.896132 
L 335.545631 308.391888 
L 398.938463 301.021112 
L 465.048738 293.680374 
L 532.073137 287.081819 
L 598.183412 281.781595 
L 661.576244 278.116453 
L 720.522445 276.262184 
L 773.414113 276.243972 
L 818.808504 277.817017 
L 855.467376 280.722819 
L 882.390771 284.282038 
L 898.844288 286.731308 
L 904.379119 287.843465 
" clip-path="url(#pa9c72b2d5e)" style="fill: none; stroke: #2ca02c; stroke-width: 1.5; stroke-linecap: square"/>
   </g>
   <g id="line2d_28">
    <path d="M 904.379119 287.832483 
L 898.844288 284.69752 
L 882.390771 275.272825 
L 855.467376 264.628063 
L 818.808504 253.621991 
L 773.414113 242.151096 
L 720.522445 230.768236 
L 661.576244 219.953617 
L 598.183412 210.265487 
L 532.073137 202.250584 
L 465.048738 196.38623 
L 398.938463 193.175708 
L 335.545631 193.027623 
L 276.59943 196.386082 
L 223.707762 203.530291 
L 178.313371 214.618159 
L 141.654499 229.658837 
L 114.731104 248.301973 
L 98.277587 269.289873 
L 92.742756 287.841586 
L 98.277587 302.136227 
L 114.731104 312.636247 
L 141.654499 318.893084 
L 178.313371 320.538197 
L 223.707762 318.473468 
L 276.59943 313.72948 
L 335.545631 307.280511 
L 398.938463 300.01214 
L 465.048738 292.803963 
L 532.073137 286.351521 
L 598.183412 281.196847 
L 661.576244 277.66921 
L 720.522445 275.93712 
L 773.414113 276.019774 
L 818.808504 277.670834 
L 855.467376 280.629918 
L 882.390771 284.229694 
L 898.844288 286.727281 
L 904.379119 287.850689 
" clip-path="url(#pa9c72b2d5e)" style="fill: none; stroke: #d62728; stroke-width: 1.5; stroke-linecap: square"/>
   </g>
   <g id="line2d_29">
    <path d="M 904.379119 287.814567 
L 898.844288 284.733926 
L 882.390771 275.485547 
L 855.467376 264.995415 
L 818.808504 254.127637 
L 773.414113 242.803087 
L 720.522445 231.575226 
L 661.576244 220.925285 
L 598.183412 211.404761 
L 532.073137 203.556148 
L 465.048738 197.846663 
L 398.938463 194.769515 
L 335.545631 194.728877 
L 276.59943 198.150706 
L 223.707762 205.285307 
L 178.313371 216.261036 
L 141.654499 231.051703 
L 114.731104 249.296288 
L 98.277587 269.793945 
L 92.742756 287.841586 
L 98.277587 301.611586 
L 114.731104 311.689114 
L 141.654499 317.61568 
L 178.313371 319.061915 
L 223.707762 316.919457 
L 276.59943 312.194805 
L 335.545631 305.847382 
L 398.938463 298.747911 
L 465.048738 291.749085 
L 532.073137 285.517651 
L 598.183412 280.572513 
L 661.576244 277.233704 
L 720.522445 275.659811 
L 773.414113 275.861815 
L 818.808504 277.592192 
L 855.467376 280.589205 
L 882.390771 284.206199 
L 898.844288 286.741327 
L 904.379119 287.868604 
" clip-path="url(#pa9c72b2d5e)" style="fill: none; stroke: #9467bd; stroke-width: 1.5; stroke-linecap: square"/>
   </g>
   <g id="line2d_30">
    <path d="M 904.379119 287.780842 
L 898.844288 284.78612 
L 882.390771 275.812011 
L 855.467376 265.554413 
L 818.808504 254.878073 
L 773.414113 243.742816 
L 720.522445 232.705927 
L 661.576244 222.252743 
L 598.183412 212.927323 
L 532.073137 205.270843 
L 465.048738 199.738749 
L 398.938463 196.81526 
L 335.545631 196.907121 
L 276.59943 200.418473 
L 223.707762 207.555295 
L 178.313371 218.400063 
L 141.654499 232.869198 
L 114.731104 250.5866 
L 98.277587 270.44414 
L 92.742756 287.841586 
L 98.277587 300.921132 
L 114.731104 310.491143 
L 141.654499 316.02416 
L 178.313371 317.248937 
L 223.707762 315.042864 
L 276.59943 310.377077 
L 335.545631 304.193893 
L 398.938463 297.347193 
L 465.048738 290.650722 
L 532.073137 284.726121 
L 598.183412 280.057754 
L 661.576244 276.955588 
L 720.522445 275.565764 
L 773.414113 275.888971 
L 818.808504 277.677462 
L 855.467376 280.66948 
L 882.390771 284.250078 
L 898.844288 286.787875 
L 904.379119 287.902329 
" clip-path="url(#pa9c72b2d5e)" style="fill: none; stroke: #8c564b; stroke-width: 1.5; stroke-linecap: square"/>
   </g>
   <g id="line2d_31">
    <path d="M 904.379119 287.727978 
L 898.844288 284.857315 
L 882.390771 276.274105 
L 855.467376 266.341224 
L 818.808504 255.915691 
L 773.414113 245.013167 
L 720.522445 234.199089 
L 661.576244 223.966993 
L 598.183412 214.853426 
L 532.073137 207.402873 
L 465.048738 202.05791 
L 398.938463 199.296898 
L 335.545631 199.540034 
L 276.59943 203.167166 
L 223.707762 210.322016 
L 178.313371 221.022108 
L 141.654499 235.100517 
L 114.731104 252.161352 
L 98.277587 271.23148 
L 92.742756 287.841586 
L 98.277587 300.067852 
L 114.731104 309.06764 
L 141.654499 314.162975 
L 178.313371 315.160938 
L 223.707762 312.920497 
L 276.59943 308.365519 
L 335.545631 302.420493 
L 398.938463 295.922067 
L 465.048738 289.631626 
L 532.073137 284.106175 
L 598.183412 279.782368 
L 661.576244 276.960089 
L 720.522445 275.770572 
L 773.414113 276.202314 
L 818.808504 278.008674 
L 855.467376 280.929756 
L 882.390771 284.39458 
L 898.844288 286.878413 
L 904.379119 287.955193 
" clip-path="url(#pa9c72b2d5e)" style="fill: none; stroke: #e377c2; stroke-width: 1.5; stroke-linecap: square"/>
   </g>
   <g id="line2d_32">
    <path d="M 904.379119 287.655899 
L 898.844288 284.949672 
L 882.390771 276.879388 
L 855.467376 267.368569 
L 818.808504 257.255325 
L 773.414113 246.627894 
L 720.522445 236.064499 
L 661.576244 226.071258 
L 598.183412 217.177546 
L 532.073137 209.93657 
L 465.048738 204.777335 
L 398.938463 202.176904 
L 335.545631 202.582037 
L 276.59943 206.347101 
L 223.707762 213.535334 
L 178.313371 224.079859 
L 141.654499 237.704225 
L 114.731104 253.988312 
L 98.277587 272.136613 
L 92.742756 287.841586 
L 98.277587 299.06837 
L 114.731104 307.457091 
L 141.654499 312.088863 
L 178.313371 312.867314 
L 223.707762 310.629139 
L 276.59943 306.240297 
L 335.545631 300.608306 
L 398.938463 294.553745 
L 465.048738 288.772372 
L 532.073137 283.736007 
L 598.183412 279.820137 
L 661.576244 277.31506 
L 720.522445 276.334665 
L 773.414113 276.853578 
L 818.808504 278.627599 
L 855.467376 281.400612 
L 882.390771 284.657232 
L 898.844288 287.017468 
L 904.379119 288.027272 
" clip-path="url(#pa9c72b2d5e)" style="fill: none; stroke: #7f7f7f; stroke-width: 1.5; stroke-linecap: square"/>
   </g>
   <g id="line2d_33">
    <path d="M 904.379119 287.568653 
L 898.844288 285.063104 
L 882.390771 277.613917 
L 855.467376 268.61371 
L 818.808504 258.869472 
L 773.414113 248.555472 
L 720.522445 238.266591 
L 661.576244 228.525225 
L 598.183412 219.854053 
L 532.073137 212.81989 
L 465.048738 207.837631 
L 398.938463 205.387986 
L 335.545631 205.956989 
L 276.59943 209.873572 
L 223.707762 217.104955 
L 178.313371 227.483308 
L 141.654499 240.601087 
L 114.731104 256.010472 
L 98.277587 273.128646 
L 92.742756 287.841586 
L 98.277587 297.955788 
L 114.731104 305.711435 
L 141.654499 309.868657 
L 178.313371 310.440178 
L 223.707762 308.23749 
L 276.59943 304.061413 
L 335.545631 298.804668 
L 398.938463 293.274118 
L 465.048738 288.088783 
L 532.073137 283.616994 
L 598.183412 280.161377 
L 661.576244 278.003217 
L 720.522445 277.236709 
L 773.414113 277.82122 
L 818.808504 279.51587 
L 855.467376 282.069696 
L 882.390771 285.031648 
L 898.844288 287.199708 
L 904.379119 288.114519 
" clip-path="url(#pa9c72b2d5e)" style="fill: none; stroke: #bcbd22; stroke-width: 1.5; stroke-linecap: square"/>
   </g>
   <g id="line2d_34">
    <path d="M 904.379119 287.474317 
L 898.844288 285.194648 
L 882.390771 278.440185 
L 855.467376 270.01486 
L 818.808504 260.683557 
L 773.414113 250.713626 
L 720.522445 240.718652 
L 661.576244 231.239317 
L 598.183412 222.791909 
L 532.073137 215.959836 
L 465.048738 211.143302 
L 398.938463 208.830725 
L 335.545631 209.556839 
L 276.59943 213.62618 
L 223.707762 220.900241 
L 178.313371 231.099962 
L 141.654499 243.674635 
L 114.731104 258.146916 
L 98.277587 274.166192 
L 92.742756 287.841586 
L 98.277587 296.779115 
L 114.731104 303.894113 
L 141.654499 307.576056 
L 178.313371 307.950315 
L 223.707762 305.801735 
L 276.59943 301.864096 
L 335.545631 297.018317 
L 398.938463 292.060526 
L 465.048738 287.526137 
L 532.073137 283.667411 
L 598.183412 280.706388 
L 661.576244 278.915539 
L 720.522445 278.367217 
L 773.414113 279.004521 
L 818.808504 280.589897 
L 855.467376 282.877809 
L 882.390771 285.485244 
L 898.844288 287.409406 
L 904.379119 288.208854 
" clip-path="url(#pa9c72b2d5e)" style="fill: none; stroke: #17becf; stroke-width: 1.5; stroke-linecap: square"/>
   </g>
   <g id="line2d_35">
    <path d="M 904.379119 287.383711 
L 898.844288 285.33871 
L 882.390771 279.30214 
L 855.467376 271.479325 
L 818.808504 262.585316 
L 773.414113 252.979026 
L 720.522445 243.292195 
L 661.576244 234.083412 
L 598.183412 225.862482 
L 532.073137 219.229475 
L 465.048738 214.569138 
L 398.938463 212.379756 
L 335.545631 213.248582 
L 276.59943 217.457528 
L 223.707762 224.760783 
L 178.313371 234.766542 
L 141.654499 246.781823 
L 114.731104 260.300045 
L 98.277587 275.201112 
L 92.742756 287.841586 
L 98.277587 295.598339 
L 114.731104 302.075537 
L 141.654499 305.287581 
L 178.313371 305.465014 
L 223.707762 303.366469 
L 276.59943 299.663248 
L 335.545631 295.22777 
L 398.938463 290.848438 
L 465.048738 286.975973 
L 532.073137 283.742416 
L 598.183412 281.287107 
L 661.576244 279.873225 
L 720.522445 279.549491 
L 773.414113 280.242161 
L 818.808504 281.715912 
L 855.467376 283.729442 
L 882.390771 285.965047 
L 898.844288 287.623088 
L 904.379119 288.29946 
" clip-path="url(#pa9c72b2d5e)" style="fill: none; stroke: #1f77b4; stroke-width: 1.5; stroke-linecap: square"/>
   </g>
   <g id="line2d_36">
    <path d="M 904.379119 287.309733 
L 898.844288 285.491897 
L 882.390771 280.146944 
L 855.467376 272.921394 
L 818.808504 264.477117 
L 773.414113 255.253859 
L 720.522445 245.897565 
L 661.576244 236.981263 
L 598.183412 229.007027 
L 532.073137 222.587408 
L 465.048738 218.089718 
L 398.938463 216.020935 
L 335.545631 217.017027 
L 276.59943 221.338451 
L 223.707762 228.63855 
L 178.313371 238.42009 
L 141.654499 249.862682 
L 114.731104 262.432642 
L 98.277587 276.215713 
L 92.742756 287.841586 
L 98.277587 294.44461 
L 114.731104 300.262061 
L 141.654499 302.98767 
L 178.313371 302.938257 
L 223.707762 300.848233 
L 276.59943 297.337615 
L 335.545631 293.272823 
L 398.938463 289.436406 
L 465.048738 286.198419 
L 532.073137 283.574846 
L 598.183412 281.625429 
L 661.576244 280.601789 
L 720.522445 280.52669 
L 773.414113 281.308782 
L 818.808504 282.712222 
L 855.467376 284.496635 
L 882.390771 286.400108 
L 898.844288 287.811143 
L 904.379119 288.373438 
" clip-path="url(#pa9c72b2d5e)" style="fill: none; stroke: #ff7f0e; stroke-width: 1.5; stroke-linecap: square"/>
   </g>
   <g id="line2d_37">
    <path d="M 904.379119 287.260577 
L 898.844288 285.644907 
L 882.390771 280.912074 
L 855.467376 274.235812 
L 818.808504 266.225733 
L 773.414113 257.384341 
L 720.522445 248.365955 
L 661.576244 239.75279 
L 598.183412 232.037973 
L 532.073137 225.840303 
L 465.048738 221.508206 
L 398.938463 219.554635 
L 335.545631 220.655362 
L 276.59943 225.05151 
L 223.707762 232.310076 
L 178.313371 241.844247 
L 141.654499 252.732503 
L 114.731104 264.418245 
L 98.277587 277.149816 
L 92.742756 287.841586 
L 98.277587 293.389959 
L 114.731104 298.552963 
L 141.654499 300.794505 
L 178.313371 300.490414 
L 223.707762 298.35468 
L 276.59943 294.972145 
L 335.545631 291.205803 
L 398.938463 287.834161 
L 465.048738 285.156638 
L 532.073137 283.086257 
L 598.183412 281.612229 
L 661.576244 280.972387 
L 720.522445 281.162435 
L 773.414113 282.07352 
L 818.808504 283.466025 
L 855.467376 285.096443 
L 882.390771 286.743923 
L 898.844288 287.953805 
L 904.379119 288.422595 
" clip-path="url(#pa9c72b2d5e)" style="fill: none; stroke: #2ca02c; stroke-width: 1.5; stroke-linecap: square"/>
   </g>
   <g id="line2d_38">
    <path d="M 904.379119 287.237318 
L 898.844288 285.786015 
L 882.390771 281.547796 
L 855.467376 275.336264 
L 818.808504 267.714158 
L 773.414113 259.225961 
L 720.522445 250.528441 
L 661.576244 242.207532 
L 598.183412 234.746877 
L 532.073137 228.765257 
L 465.048738 224.592194 
L 398.938463 222.74336 
L 335.545631 223.922849 
L 276.59943 228.35543 
L 223.707762 235.541158 
L 178.313371 244.824517 
L 141.654499 255.213896 
L 114.731104 266.135145 
L 98.277587 277.948413 
L 92.742756 287.841586 
L 98.277587 292.497013 
L 114.731104 297.052473 
L 141.654499 298.842708 
L 178.313371 298.274271 
L 223.707762 296.045557 
L 276.59943 292.722937 
L 335.545631 289.168131 
L 398.938463 286.157121 
L 465.048738 283.93282 
L 532.073137 282.324833 
L 598.183412 281.265215 
L 661.576244 280.97688 
L 720.522445 281.429452 
L 773.414113 282.497892 
L 818.808504 283.936158 
L 855.467376 285.494192 
L 882.390771 286.976136 
L 898.844288 288.044108 
L 904.379119 288.445854 
" clip-path="url(#pa9c72b2d5e)" style="fill: none; stroke: #d62728; stroke-width: 1.5; stroke-linecap: square"/>
   </g>
   <g id="line2d_39">
    <path d="M 904.379119 287.236722 
L 898.844288 285.908272 
L 882.390771 282.037429 
L 855.467376 276.19233 
L 818.808504 268.897536 
L 773.414113 260.720165 
L 720.522445 252.314233 
L 661.576244 244.264517 
L 598.183412 237.044992 
L 532.073137 231.268795 
L 465.048738 227.247326 
L 398.938463 225.495285 
L 335.545631 226.732731 
L 276.59943 231.170654 
L 223.707762 238.262019 
L 178.313371 247.3038 
L 141.654499 257.26386 
L 114.731104 267.555722 
L 98.277587 278.603124 
L 92.742756 287.841586 
L 98.277587 291.776361 
L 114.731104 295.783145 
L 141.654499 297.162877 
L 178.313371 296.329035 
L 223.707762 293.969051 
L 276.59943 290.644848 
L 335.545631 287.217763 
L 398.938463 284.461707 
L 465.048738 282.577753 
L 532.073137 281.333378 
L 598.183412 280.617817 
L 661.576244 280.638646 
L 720.522445 281.34163 
L 773.414113 282.587381 
L 818.808504 284.121611 
L 855.467376 285.685213 
L 882.390771 287.093099 
L 898.844288 288.083585 
L 904.379119 288.446449 
" clip-path="url(#pa9c72b2d5e)" style="fill: none; stroke: #9467bd; stroke-width: 1.5; stroke-linecap: square"/>
   </g>
   <g id="line2d_40">
    <path d="M 904.379119 287.25163 
L 898.844288 286.007309 
L 882.390771 282.386556 
L 855.467376 276.810479 
L 818.808504 269.77565 
L 773.414113 261.856992 
L 720.522445 253.702296 
L 661.576244 245.891809 
L 598.183412 238.890261 
L 532.073137 233.301371 
L 465.048738 229.420151 
L 398.938463 227.7572 
L 335.545631 229.037856 
L 276.59943 233.461515 
L 223.707762 240.451309 
L 178.313371 249.274944 
L 141.654499 258.883081 
L 114.731104 268.681287 
L 98.277587 279.11904 
L 92.742756 287.841586 
L 98.277587 291.220188 
L 114.731104 294.749922 
L 141.654499 295.769631 
L 178.313371 294.68394 
L 223.707762 292.173156 
L 276.59943 288.804027 
L 335.545631 285.437393 
L 398.938463 282.844819 
L 465.048738 281.198652 
L 532.073137 280.223968 
L 598.183412 279.780352 
L 661.576244 280.060696 
L 720.522445 280.990222 
L 773.414113 282.417439 
L 818.808504 284.079201 
L 855.467376 285.706337 
L 882.390771 287.114314 
L 898.844288 288.08329 
L 904.379119 288.431542 
" clip-path="url(#pa9c72b2d5e)" style="fill: none; stroke: #8c564b; stroke-width: 1.5; stroke-linecap: square"/>
   </g>
   <g id="line2d_41">
    <path d="M 904.379119 287.273514 
L 898.844288 286.081674 
L 882.390771 282.61615 
L 855.467376 277.223248 
L 818.808504 270.381295 
L 773.414113 262.663961 
L 720.522445 254.71147 
L 661.576244 247.098074 
L 598.183412 240.280376 
L 532.073137 234.851363 
L 465.048738 231.092306 
L 398.938463 229.507933 
L 335.545631 230.821567 
L 276.59943 235.223071 
L 223.707762 242.118759 
L 178.313371 250.760586 
L 141.654499 260.096962 
L 114.731104 269.528719 
L 98.277587 279.50706 
L 92.742756 287.841586 
L 98.277587 290.811598 
L 114.731104 293.949671 
L 141.654499 294.671213 
L 178.313371 293.364892 
L 223.707762 290.706711 
L 276.59943 287.272419 
L 335.545631 283.921806 
L 398.938463 281.423664 
L 465.048738 279.932051 
L 532.073137 279.145669 
L 598.183412 278.905176 
L 661.576244 279.390593 
L 720.522445 280.510729 
L 773.414113 282.104502 
L 818.808504 283.900562 
L 855.467376 285.620207 
L 882.390771 287.073947 
L 898.844288 288.059377 
L 904.379119 288.409657 
" clip-path="url(#pa9c72b2d5e)" style="fill: none; stroke: #e377c2; stroke-width: 1.5; stroke-linecap: square"/>
   </g>
   <g id="line2d_42">
    <path d="M 904.379119 287.294705 
L 898.844288 286.132309 
L 882.390771 282.753572 
L 855.467376 277.474588 
L 818.808504 270.763305 
L 773.414113 263.188465 
L 720.522445 255.383373 
L 661.576244 247.916618 
L 598.183412 241.238457 
L 532.073137 235.93225 
L 465.048738 232.268936 
L 398.938463 230.747321 
L 335.545631 232.085475 
L 276.59943 236.465984 
L 223.707762 243.286887 
L 178.313371 251.792981 
L 141.654499 260.937311 
L 114.731104 270.118119 
L 98.277587 279.777592 
L 92.742756 287.841586 
L 98.277587 290.533032 
L 114.731104 293.378697 
L 141.654499 293.875955 
L 178.313371 292.397557 
L 223.707762 289.617081 
L 276.59943 286.119307 
L 335.545631 282.762608 
L 398.938463 280.312985 
L 465.048738 278.913801 
L 532.073137 278.248991 
L 598.183412 278.148193 
L 661.576244 278.781436 
L 720.522445 280.04568 
L 773.414113 281.772931 
L 818.808504 283.685309 
L 855.467376 285.496427 
L 882.390771 287.010423 
L 898.844288 288.028445 
L 904.379119 288.388466 
" clip-path="url(#pa9c72b2d5e)" style="fill: none; stroke: #7f7f7f; stroke-width: 1.5; stroke-linecap: square"/>
   </g>
   <g id="line2d_43">
    <path d="M 904.379119 287.30959 
L 898.844288 286.161352 
L 882.390771 282.824271 
L 855.467376 277.606033 
L 818.808504 270.969664 
L 773.414113 263.47935 
L 720.522445 255.763639 
L 661.576244 248.387162 
L 598.183412 241.796149 
L 532.073137 236.567369 
L 465.048738 232.965362 
L 398.938463 231.484606 
L 335.545631 232.83834 
L 276.59943 237.204532 
L 223.707762 243.977817 
L 178.313371 252.400397 
L 141.654499 261.430617 
L 114.731104 270.465476 
L 98.277587 279.937623 
L 92.742756 287.841586 
L 98.277587 290.37109 
L 114.731104 293.035725 
L 141.654499 293.393378 
L 178.313371 291.805621 
L 223.707762 288.944829 
L 276.59943 285.402126 
L 335.545631 282.034657 
L 398.938463 279.606324 
L 465.048738 278.25506 
L 532.073137 277.657702 
L 598.183412 277.638349 
L 661.576244 278.360712 
L 720.522445 279.714633 
L 773.414113 281.527952 
L 818.808504 283.518628 
L 855.467376 285.395334 
L 882.390771 286.957307 
L 898.844288 288.00409 
L 904.379119 288.373581 
" clip-path="url(#pa9c72b2d5e)" style="fill: none; stroke: #bcbd22; stroke-width: 1.5; stroke-linecap: square"/>
   </g>
   <g id="line2d_44">
    <path d="M 904.379119 287.314904 
L 898.844288 286.170773 
L 882.390771 282.845772 
L 855.467376 277.646433 
L 818.808504 271.034386 
L 773.414113 263.572038 
L 720.522445 255.886249 
L 661.576244 248.54024 
L 598.183412 241.978859 
L 532.073137 236.776542 
L 465.048738 233.195664 
L 398.938463 231.729122 
L 335.545631 233.088251 
L 276.59943 237.449429 
L 223.707762 244.20642 
L 178.313371 252.60085 
L 141.654499 261.593248 
L 114.731104 270.580248 
L 98.277587 279.990638 
L 92.742756 287.841586 
L 98.277587 290.317945 
L 114.731104 292.921249 
L 141.654499 293.231473 
L 178.313371 291.606216 
L 223.707762 288.717491 
L 276.59943 285.158676 
L 335.545631 281.786433 
L 398.938463 279.363881 
L 465.048738 278.027308 
L 532.073137 277.451496 
L 598.183412 277.458878 
L 661.576244 278.211006 
L 720.522445 279.595354 
L 773.414113 281.438371 
L 818.808504 283.456591 
L 855.467376 285.356988 
L 882.390771 286.936997 
L 898.844288 287.994987 
L 904.379119 288.368268 
" clip-path="url(#pa9c72b2d5e)" style="fill: none; stroke: #17becf; stroke-width: 1.5; stroke-linecap: square"/>
   </g>
   <g id="patch_3">
    <path d="M 52.160938 506.16 
L 52.160938 7.2 
" style="fill: none; stroke: #000000; stroke-width: 0.8; stroke-linejoin: miter; stroke-linecap: square"/>
   </g>
   <g id="patch_4">
    <path d="M 944.960938 506.16 
L 944.960938 7.2 
" style="fill: none; stroke: #000000; stroke-width: 0.8; stroke-linejoin: miter; stroke-linecap: square"/>
   </g>
   <g id="patch_5">
    <path d="M 52.160938 506.16 
L 944.960937 506.16 
" style="fill: none; stroke: #000000; stroke-width: 0.8; stroke-linejoin: miter; stroke-linecap: square"/>
   </g>
   <g id="patch_6">
    <path d="M 52.160938 7.2 
L 944.960937 7.2 
" style="fill: none; stroke: #000000; stroke-width: 0.8; stroke-linejoin: miter; stroke-linecap: square"/>
   </g>
  </g>
 </g>
 <defs>
  <clipPath id="pa9c72b2d5e">
   <rect x="52.160938" y="7.2" width="892.8" height="498.96"/>
  </clipPath>
 </defs>
</svg>
