<?xml version="1.0" encoding="utf-8" standalone="no"?>
<!DOCTYPE svg PUBLIC "-//W3C//DTD SVG 1.1//EN"
  "http://www.w3.org/Graphics/SVG/1.1/DTD/svg11.dtd">
<svg xmlns:xlink="http://www.w3.org/1999/xlink" width="952.160937pt" height="543.738125pt" viewBox="0 0 952.160937 543.738125" xmlns="http://www.w3.org/2000/svg" version="1.1">
 <metadata>
  <rdf:RDF xmlns:dc="http://purl.org/dc/elements/1.1/" xmlns:cc="http://creativecommons.org/ns#" xmlns:rdf="http://www.w3.org/1999/02/22-rdf-syntax-ns#">
   <cc:Work>
    <dc:type rdf:resource="http://purl.org/dc/dcmitype/StillImage"/>
    <dc:date>2026-05-18T18:45:57.517674</dc:date>
    <dc:format>image/svg+xml</dc:format>
    <dc:creator>
     <cc:Agent>
      <dc:title>Matplotlib v3.10.9, https://matplotlib.org/</dc:title>
     </cc:Agent>
    </dc:creator>
   </cc:Work>
  </rdf:RDF>
 </metadata>
 <defs>
  <style type="text/css">*{stroke-linejoin: round; stroke-linecap: butt}</style>
 </defs>
 <g id="figure_1">
  <g id="patch_1">
   <path d="M 0 543.738125 
L 952.160937 543.738125 
L 952.160937 0 
L 0 0 
L 0 543.738125 
z
" style="fill: none"/>
  </g>
  <g id="axes_1">
   <g id="patch_2">
    <path d="M 52.160938 506.16 
L 944.960938 506.16 
L 944.960938 7.2 
L 52.160938 7.2 
L 52.160938 506.16 
z
" style="fill: none"/>
   </g>
   <g id="matplotlib.axis_1">
    <g id="xtick_1">
     <g id="line2d_1">
      <path d="M 101.760938 506.16 
L 101.760938 7.2 
" clip-path="url(#p484e5923d8)" style="fill: none; stroke: #b0b0b0; stroke-width: 0.8; stroke-linecap: square"/>
     </g>
     <g id="line2d_2">
      <defs>
       <path id="m317c80a65d" d="M 0 0 
L 0 3.5 
" style="stroke: #000000; stroke-width: 0.8"/>
      </defs>
      <g>
       <use xlink:href="#m317c80a65d" x="101.760938" y="506.16" style="stroke: #000000; stroke-width: 0.8"/>
      </g>
     </g>
     <g id="text_1">
      <!-- −80 -->
      <g transform="translate(91.208594 520.758438) scale(0.1 -0.1)">
       <defs>
        <path id="DejaVuSans-2212" d="M 678 2272 
L 4684 2272 
L 4684 1741 
L 678 1741 
L 678 2272 
z
" transform="scale(0.015625)"/>
        <path id="DejaVuSans-38" d="M 2034 2216 
Q 1584 2216 1326 1975 
Q 1069 1734 1069 1313 
Q 1069 891 1326 650 
Q 1584 409 2034 409 
Q 2484 409 2743 651 
Q 3003 894 3003 1313 
Q 3003 1734 2745 1975 
Q 2488 2216 2034 2216 
z
M 1403 2484 
Q 997 2584 770 2862 
Q 544 3141 544 3541 
Q 544 4100 942 4425 
Q 1341 4750 2034 4750 
Q 2731 4750 3128 4425 
Q 3525 4100 3525 3541 
Q 3525 3141 3298 2862 
Q 3072 2584 2669 2484 
Q 3125 2378 3379 2068 
Q 3634 1759 3634 1313 
Q 3634 634 3220 271 
Q 2806 -91 2034 -91 
Q 1263 -91 848 271 
Q 434 634 434 1313 
Q 434 1759 690 2068 
Q 947 2378 1403 2484 
z
M 1172 3481 
Q 1172 3119 1398 2916 
Q 1625 2713 2034 2713 
Q 2441 2713 2670 2916 
Q 2900 3119 2900 3481 
Q 2900 3844 2670 4047 
Q 2441 4250 2034 4250 
Q 1625 4250 1398 4047 
Q 1172 3844 1172 3481 
z
" transform="scale(0.015625)"/>
        <path id="DejaVuSans-30" d="M 2034 4250 
Q 1547 4250 1301 3770 
Q 1056 3291 1056 2328 
Q 1056 1369 1301 889 
Q 1547 409 2034 409 
Q 2525 409 2770 889 
Q 3016 1369 3016 2328 
Q 3016 3291 2770 3770 
Q 2525 4250 2034 4250 
z
M 2034 4750 
Q 2819 4750 3233 4129 
Q 3647 3509 3647 2328 
Q 3647 1150 3233 529 
Q 2819 -91 2034 -91 
Q 1250 -91 836 529 
Q 422 1150 422 2328 
Q 422 3509 836 4129 
Q 1250 4750 2034 4750 
z
" transform="scale(0.015625)"/>
       </defs>
       <use xlink:href="#DejaVuSans-2212"/>
       <use xlink:href="#DejaVuSans-38" transform="translate(83.789062 0)"/>
       <use xlink:href="#DejaVuSans-30" transform="translate(147.412109 0)"/>
      </g>
     </g>
    </g>
    <g id="xtick_2">
     <g id="line2d_3">
      <path d="M 200.960938 506.16 
L 200.960938 7.2 
" clip-path="url(#p484e5923d8)" style="fill: none; stroke: #b0b0b0; stroke-width: 0.8; stroke-linecap: square"/>
     </g>
     <g id="line2d_4">
      <g>
       <use xlink:href="#m317c80a65d" x="200.960938" y="506.16" style="stroke: #000000; stroke-width: 0.8"/>
      </g>
     </g>
     <g id="text_2">
      <!-- −60 -->
      <g transform="translate(190.408594 520.758438) scale(0.1 -0.1)">
       <defs>
        <path id="DejaVuSans-36" d="M 2113 2584 
Q 1688 2584 1439 2293 
Q 1191 2003 1191 1497 
Q 1191 994 1439 701 
Q 1688 409 2113 409 
Q 2538 409 2786 701 
Q 3034 994 3034 1497 
Q 3034 2003 2786 2293 
Q 2538 2584 2113 2584 
z
M 3366 4563 
L 3366 3988 
Q 3128 4100 2886 4159 
Q 2644 4219 2406 4219 
Q 1781 4219 1451 3797 
Q 1122 3375 1075 2522 
Q 1259 2794 1537 2939 
Q 1816 3084 2150 3084 
Q 2853 3084 3261 2657 
Q 3669 2231 3669 1497 
Q 3669 778 3244 343 
Q 2819 -91 2113 -91 
Q 1303 -91 875 529 
Q 447 1150 447 2328 
Q 447 3434 972 4092 
Q 1497 4750 2381 4750 
Q 2619 4750 2861 4703 
Q 3103 4656 3366 4563 
z
" transform="scale(0.015625)"/>
       </defs>
       <use xlink:href="#DejaVuSans-2212"/>
       <use xlink:href="#DejaVuSans-36" transform="translate(83.789062 0)"/>
       <use xlink:href="#DejaVuSans-30" transform="translate(147.412109 0)"/>
      </g>
     </g>
    </g>
    <g id="xtick_3">
     <g id="line2d_5">
      <path d="M 300.160938 506.16 
L 300.160938 7.2 
" clip-path="url(#p484e5923d8)" style="fill: none; stroke: #b0b0b0; stroke-width: 0.8; stroke-linecap: square"/>
     </g>
     <g id="line2d_6">
      <g>
       <use xlink:href="#m317c80a65d" x="300.160938" y="506.16" style="stroke: #000000; stroke-width: 0.8"/>
      </g>
     </g>
     <g id="text_3">
      <!-- −40 -->
      <g transform="translate(289.608594 520.758438) scale(0.1 -0.1)">
       <defs>
        <path id="DejaVuSans-34" d="M 2419 4116 
L 825 1625 
L 2419 1625 
L 2419 4116 
z
M 2253 4666 
L 3047 4666 
L 3047 1625 
L 3713 1625 
L 3713 1100 
L 3047 1100 
L 3047 0 
L 2419 0 
L 2419 1100 
L 313 1100 
L 313 1709 
L 2253 4666 
z
" transform="scale(0.015625)"/>
       </defs>
       <use xlink:href="#DejaVuSans-2212"/>
       <use xlink:href="#DejaVuSans-34" transform="translate(83.789062 0)"/>
       <use xlink:href="#DejaVuSans-30" transform="translate(147.412109 0)"/>
      </g>
     </g>
    </g>
    <g id="xtick_4">
     <g id="line2d_7">
      <path d="M 399.360938 506.16 
L 399.360938 7.2 
" clip-path="url(#p484e5923d8)" style="fill: none; stroke: #b0b0b0; stroke-width: 0.8; stroke-linecap: square"/>
     </g>
     <g id="line2d_8">
      <g>
       <use xlink:href="#m317c80a65d" x="399.360938" y="506.16" style="stroke: #000000; stroke-width: 0.8"/>
      </g>
     </g>
     <g id="text_4">
      <!-- −20 -->
      <g transform="translate(388.808594 520.758438) scale(0.1 -0.1)">
       <defs>
        <path id="DejaVuSans-32" d="M 1228 531 
L 3431 531 
L 3431 0 
L 469 0 
L 469 531 
Q 828 903 1448 1529 
Q 2069 2156 2228 2338 
Q 2531 2678 2651 2914 
Q 2772 3150 2772 3378 
Q 2772 3750 2511 3984 
Q 2250 4219 1831 4219 
Q 1534 4219 1204 4116 
Q 875 4013 500 3803 
L 500 4441 
Q 881 4594 1212 4672 
Q 1544 4750 1819 4750 
Q 2544 4750 2975 4387 
Q 3406 4025 3406 3419 
Q 3406 3131 3298 2873 
Q 3191 2616 2906 2266 
Q 2828 2175 2409 1742 
Q 1991 1309 1228 531 
z
" transform="scale(0.015625)"/>
       </defs>
       <use xlink:href="#DejaVuSans-2212"/>
       <use xlink:href="#DejaVuSans-32" transform="translate(83.789062 0)"/>
       <use xlink:href="#DejaVuSans-30" transform="translate(147.412109 0)"/>
      </g>
     </g>
    </g>
    <g id="xtick_5">
     <g id="line2d_9">
      <path d="M 498.560938 506.16 
L 498.560938 7.2 
" clip-path="url(#p484e5923d8)" style="fill: none; stroke: #b0b0b0; stroke-width: 0.8; stroke-linecap: square"/>
     </g>
     <g id="line2d_10">
      <g>
       <use xlink:href="#m317c80a65d" x="498.560938" y="506.16" style="stroke: #000000; stroke-width: 0.8"/>
      </g>
     </g>
     <g id="text_5">
      <!-- 0 -->
      <g transform="translate(495.379688 520.758438) scale(0.1 -0.1)">
       <use xlink:href="#DejaVuSans-30"/>
      </g>
     </g>
    </g>
    <g id="xtick_6">
     <g id="line2d_11">
      <path d="M 597.760938 506.16 
L 597.760938 7.2 
" clip-path="url(#p484e5923d8)" style="fill: none; stroke: #b0b0b0; stroke-width: 0.8; stroke-linecap: square"/>
     </g>
     <g id="line2d_12">
      <g>
       <use xlink:href="#m317c80a65d" x="597.760938" y="506.16" style="stroke: #000000; stroke-width: 0.8"/>
      </g>
     </g>
     <g id="text_6">
      <!-- 20 -->
      <g transform="translate(591.398438 520.758438) scale(0.1 -0.1)">
       <use xlink:href="#DejaVuSans-32"/>
       <use xlink:href="#DejaVuSans-30" transform="translate(63.623047 0)"/>
      </g>
     </g>
    </g>
    <g id="xtick_7">
     <g id="line2d_13">
      <path d="M 696.960938 506.16 
L 696.960938 7.2 
" clip-path="url(#p484e5923d8)" style="fill: none; stroke: #b0b0b0; stroke-width: 0.8; stroke-linecap: square"/>
     </g>
     <g id="line2d_14">
      <g>
       <use xlink:href="#m317c80a65d" x="696.960938" y="506.16" style="stroke: #000000; stroke-width: 0.8"/>
      </g>
     </g>
     <g id="text_7">
      <!-- 40 -->
      <g transform="translate(690.598438 520.758438) scale(0.1 -0.1)">
       <use xlink:href="#DejaVuSans-34"/>
       <use xlink:href="#DejaVuSans-30" transform="translate(63.623047 0)"/>
      </g>
     </g>
    </g>
    <g id="xtick_8">
     <g id="line2d_15">
      <path d="M 796.160938 506.16 
L 796.160938 7.2 
" clip-path="url(#p484e5923d8)" style="fill: none; stroke: #b0b0b0; stroke-width: 0.8; stroke-linecap: square"/>
     </g>
     <g id="line2d_16">
      <g>
       <use xlink:href="#m317c80a65d" x="796.160938" y="506.16" style="stroke: #000000; stroke-width: 0.8"/>
      </g>
     </g>
     <g id="text_8">
      <!-- 60 -->
      <g transform="translate(789.798438 520.758438) scale(0.1 -0.1)">
       <use xlink:href="#DejaVuSans-36"/>
       <use xlink:href="#DejaVuSans-30" transform="translate(63.623047 0)"/>
      </g>
     </g>
    </g>
    <g id="xtick_9">
     <g id="line2d_17">
      <path d="M 895.360938 506.16 
L 895.360938 7.2 
" clip-path="url(#p484e5923d8)" style="fill: none; stroke: #b0b0b0; stroke-width: 0.8; stroke-linecap: square"/>
     </g>
     <g id="line2d_18">
      <g>
       <use xlink:href="#m317c80a65d" x="895.360938" y="506.16" style="stroke: #000000; stroke-width: 0.8"/>
      </g>
     </g>
     <g id="text_9">
      <!-- 80 -->
      <g transform="translate(888.998438 520.758438) scale(0.1 -0.1)">
       <use xlink:href="#DejaVuSans-38"/>
       <use xlink:href="#DejaVuSans-30" transform="translate(63.623047 0)"/>
      </g>
     </g>
    </g>
    <g id="text_10">
     <!-- $alpha (deg)$ -->
     <g transform="translate(471.360938 534.438125) scale(0.1 -0.1)">
      <defs>
       <path id="DejaVuSans-Oblique-61" d="M 3438 1997 
L 3047 0 
L 2472 0 
L 2578 531 
Q 2325 219 2001 64 
Q 1678 -91 1281 -91 
Q 834 -91 548 182 
Q 263 456 263 884 
Q 263 1497 752 1853 
Q 1241 2209 2100 2209 
L 2900 2209 
L 2931 2363 
Q 2938 2388 2941 2417 
Q 2944 2447 2944 2509 
Q 2944 2788 2717 2942 
Q 2491 3097 2081 3097 
Q 1800 3097 1504 3025 
Q 1209 2953 897 2809 
L 997 3341 
Q 1322 3463 1633 3523 
Q 1944 3584 2234 3584 
Q 2853 3584 3176 3315 
Q 3500 3047 3500 2534 
Q 3500 2431 3484 2292 
Q 3469 2153 3438 1997 
z
M 2816 1759 
L 2241 1759 
Q 1534 1759 1195 1570 
Q 856 1381 856 984 
Q 856 709 1029 553 
Q 1203 397 1509 397 
Q 1978 397 2328 733 
Q 2678 1069 2791 1631 
L 2816 1759 
z
" transform="scale(0.015625)"/>
       <path id="DejaVuSans-Oblique-6c" d="M 1172 4863 
L 1747 4863 
L 800 0 
L 225 0 
L 1172 4863 
z
" transform="scale(0.015625)"/>
       <path id="DejaVuSans-Oblique-70" d="M 3175 2156 
Q 3175 2616 2975 2859 
Q 2775 3103 2400 3103 
Q 2144 3103 1911 2972 
Q 1678 2841 1497 2591 
Q 1319 2344 1212 1994 
Q 1106 1644 1106 1300 
Q 1106 863 1306 627 
Q 1506 391 1875 391 
Q 2147 391 2380 519 
Q 2613 647 2778 891 
Q 2956 1147 3065 1494 
Q 3175 1841 3175 2156 
z
M 1394 2969 
Q 1625 3272 1939 3428 
Q 2253 3584 2638 3584 
Q 3175 3584 3472 3232 
Q 3769 2881 3769 2247 
Q 3769 1728 3584 1258 
Q 3400 788 3053 416 
Q 2822 169 2531 39 
Q 2241 -91 1919 -91 
Q 1547 -91 1294 64 
Q 1041 219 916 525 
L 556 -1331 
L -19 -1331 
L 922 3500 
L 1497 3500 
L 1394 2969 
z
" transform="scale(0.015625)"/>
       <path id="DejaVuSans-Oblique-68" d="M 3566 2113 
L 3156 0 
L 2578 0 
L 2988 2091 
Q 3016 2238 3031 2350 
Q 3047 2463 3047 2528 
Q 3047 2791 2881 2937 
Q 2716 3084 2419 3084 
Q 1956 3084 1617 2771 
Q 1278 2459 1178 1941 
L 800 0 
L 225 0 
L 1172 4863 
L 1747 4863 
L 1375 2950 
Q 1594 3244 1934 3414 
Q 2275 3584 2650 3584 
Q 3113 3584 3367 3334 
Q 3622 3084 3622 2631 
Q 3622 2519 3608 2391 
Q 3594 2263 3566 2113 
z
" transform="scale(0.015625)"/>
       <path id="DejaVuSans-28" d="M 1984 4856 
Q 1566 4138 1362 3434 
Q 1159 2731 1159 2009 
Q 1159 1288 1364 580 
Q 1569 -128 1984 -844 
L 1484 -844 
Q 1016 -109 783 600 
Q 550 1309 550 2009 
Q 550 2706 781 3412 
Q 1013 4119 1484 4856 
L 1984 4856 
z
" transform="scale(0.015625)"/>
       <path id="DejaVuSans-Oblique-64" d="M 2675 525 
Q 2444 222 2128 65 
Q 1813 -91 1428 -91 
Q 903 -91 598 267 
Q 294 625 294 1247 
Q 294 1766 478 2236 
Q 663 2706 1013 3078 
Q 1244 3325 1534 3454 
Q 1825 3584 2144 3584 
Q 2481 3584 2739 3421 
Q 2997 3259 3138 2956 
L 3513 4863 
L 4091 4863 
L 3144 0 
L 2566 0 
L 2675 525 
z
M 891 1350 
Q 891 897 1095 644 
Q 1300 391 1663 391 
Q 1931 391 2161 520 
Q 2391 650 2566 903 
Q 2750 1166 2856 1509 
Q 2963 1853 2963 2188 
Q 2963 2622 2758 2865 
Q 2553 3109 2194 3109 
Q 1922 3109 1687 2981 
Q 1453 2853 1288 2613 
Q 1106 2353 998 2009 
Q 891 1666 891 1350 
z
" transform="scale(0.015625)"/>
       <path id="DejaVuSans-Oblique-65" d="M 3078 2063 
Q 3088 2113 3092 2166 
Q 3097 2219 3097 2272 
Q 3097 2653 2873 2875 
Q 2650 3097 2266 3097 
Q 1838 3097 1509 2826 
Q 1181 2556 1013 2059 
L 3078 2063 
z
M 3578 1613 
L 903 1613 
Q 884 1494 878 1425 
Q 872 1356 872 1306 
Q 872 872 1139 634 
Q 1406 397 1894 397 
Q 2269 397 2603 481 
Q 2938 566 3225 728 
L 3116 159 
Q 2806 34 2476 -28 
Q 2147 -91 1806 -91 
Q 1078 -91 686 257 
Q 294 606 294 1247 
Q 294 1794 489 2264 
Q 684 2734 1063 3103 
Q 1306 3334 1642 3459 
Q 1978 3584 2356 3584 
Q 2950 3584 3301 3228 
Q 3653 2872 3653 2272 
Q 3653 2128 3634 1964 
Q 3616 1800 3578 1613 
z
" transform="scale(0.015625)"/>
       <path id="DejaVuSans-Oblique-67" d="M 3816 3500 
L 3219 434 
Q 3047 -456 2561 -893 
Q 2075 -1331 1253 -1331 
Q 950 -1331 690 -1286 
Q 431 -1241 206 -1147 
L 313 -588 
Q 525 -725 762 -790 
Q 1000 -856 1269 -856 
Q 1816 -856 2167 -557 
Q 2519 -259 2631 300 
L 2681 563 
Q 2441 288 2122 144 
Q 1803 0 1434 0 
Q 903 0 598 351 
Q 294 703 294 1319 
Q 294 1803 478 2267 
Q 663 2731 997 3091 
Q 1219 3328 1514 3456 
Q 1809 3584 2131 3584 
Q 2484 3584 2746 3420 
Q 3009 3256 3138 2956 
L 3238 3500 
L 3816 3500 
z
M 2950 2216 
Q 2950 2641 2750 2872 
Q 2550 3103 2181 3103 
Q 1953 3103 1747 3012 
Q 1541 2922 1394 2759 
Q 1156 2491 1023 2127 
Q 891 1763 891 1375 
Q 891 944 1092 712 
Q 1294 481 1672 481 
Q 2219 481 2584 976 
Q 2950 1472 2950 2216 
z
" transform="scale(0.015625)"/>
       <path id="DejaVuSans-29" d="M 513 4856 
L 1013 4856 
Q 1481 4119 1714 3412 
Q 1947 2706 1947 2009 
Q 1947 1309 1714 600 
Q 1481 -109 1013 -844 
L 513 -844 
Q 928 -128 1133 580 
Q 1338 1288 1338 2009 
Q 1338 2731 1133 3434 
Q 928 4138 513 4856 
z
" transform="scale(0.015625)"/>
      </defs>
      <use xlink:href="#DejaVuSans-Oblique-61" transform="translate(0 0.015625)"/>
      <use xlink:href="#DejaVuSans-Oblique-6c" transform="translate(61.279297 0.015625)"/>
      <use xlink:href="#DejaVuSans-Oblique-70" transform="translate(89.0625 0.015625)"/>
      <use xlink:href="#DejaVuSans-Oblique-68" transform="translate(152.539062 0.015625)"/>
      <use xlink:href="#DejaVuSans-Oblique-61" transform="translate(215.917969 0.015625)"/>
      <use xlink:href="#DejaVuSans-28" transform="translate(277.197266 0.015625)"/>
      <use xlink:href="#DejaVuSans-Oblique-64" transform="translate(316.210938 0.015625)"/>
      <use xlink:href="#DejaVuSans-Oblique-65" transform="translate(379.6875 0.015625)"/>
      <use xlink:href="#DejaVuSans-Oblique-67" transform="translate(441.210938 0.015625)"/>
      <use xlink:href="#DejaVuSans-29" transform="translate(504.6875 0.015625)"/>
     </g>
    </g>
   </g>
   <g id="matplotlib.axis_2">
    <g id="ytick_1">
     <g id="line2d_19">
      <path d="M 52.160938 442.556706 
L 944.960938 442.556706 
" clip-path="url(#p484e5923d8)" style="fill: none; stroke: #b0b0b0; stroke-width: 0.8; stroke-linecap: square"/>
     </g>
     <g id="line2d_20">
      <defs>
       <path id="m1a31b73d96" d="M 0 0 
L -3.5 0 
" style="stroke: #000000; stroke-width: 0.8"/>
      </defs>
      <g>
       <use xlink:href="#m1a31b73d96" x="52.160938" y="442.556706" style="stroke: #000000; stroke-width: 0.8"/>
      </g>
     </g>
     <g id="text_11">
      <!-- −0.5 -->
      <g transform="translate(20.878125 446.355925) scale(0.1 -0.1)">
       <defs>
        <path id="DejaVuSans-2e" d="M 684 794 
L 1344 794 
L 1344 0 
L 684 0 
L 684 794 
z
" transform="scale(0.015625)"/>
        <path id="DejaVuSans-35" d="M 691 4666 
L 3169 4666 
L 3169 4134 
L 1269 4134 
L 1269 2991 
Q 1406 3038 1543 3061 
Q 1681 3084 1819 3084 
Q 2600 3084 3056 2656 
Q 3513 2228 3513 1497 
Q 3513 744 3044 326 
Q 2575 -91 1722 -91 
Q 1428 -91 1123 -41 
Q 819 9 494 109 
L 494 744 
Q 775 591 1075 516 
Q 1375 441 1709 441 
Q 2250 441 2565 725 
Q 2881 1009 2881 1497 
Q 2881 1984 2565 2268 
Q 2250 2553 1709 2553 
Q 1456 2553 1204 2497 
Q 953 2441 691 2322 
L 691 4666 
z
" transform="scale(0.015625)"/>
       </defs>
       <use xlink:href="#DejaVuSans-2212"/>
       <use xlink:href="#DejaVuSans-30" transform="translate(83.789062 0)"/>
       <use xlink:href="#DejaVuSans-2e" transform="translate(147.412109 0)"/>
       <use xlink:href="#DejaVuSans-35" transform="translate(179.199219 0)"/>
      </g>
     </g>
    </g>
    <g id="ytick_2">
     <g id="line2d_21">
      <path d="M 52.160938 340.662222 
L 944.960938 340.662222 
" clip-path="url(#p484e5923d8)" style="fill: none; stroke: #b0b0b0; stroke-width: 0.8; stroke-linecap: square"/>
     </g>
     <g id="line2d_22">
      <g>
       <use xlink:href="#m1a31b73d96" x="52.160938" y="340.662222" style="stroke: #000000; stroke-width: 0.8"/>
      </g>
     </g>
     <g id="text_12">
      <!-- 0.0 -->
      <g transform="translate(29.257813 344.461441) scale(0.1 -0.1)">
       <use xlink:href="#DejaVuSans-30"/>
       <use xlink:href="#DejaVuSans-2e" transform="translate(63.623047 0)"/>
       <use xlink:href="#DejaVuSans-30" transform="translate(95.410156 0)"/>
      </g>
     </g>
    </g>
    <g id="ytick_3">
     <g id="line2d_23">
      <path d="M 52.160938 238.767738 
L 944.960938 238.767738 
" clip-path="url(#p484e5923d8)" style="fill: none; stroke: #b0b0b0; stroke-width: 0.8; stroke-linecap: square"/>
     </g>
     <g id="line2d_24">
      <g>
       <use xlink:href="#m1a31b73d96" x="52.160938" y="238.767738" style="stroke: #000000; stroke-width: 0.8"/>
      </g>
     </g>
     <g id="text_13">
      <!-- 0.5 -->
      <g transform="translate(29.257813 242.566957) scale(0.1 -0.1)">
       <use xlink:href="#DejaVuSans-30"/>
       <use xlink:href="#DejaVuSans-2e" transform="translate(63.623047 0)"/>
       <use xlink:href="#DejaVuSans-35" transform="translate(95.410156 0)"/>
      </g>
     </g>
    </g>
    <g id="ytick_4">
     <g id="line2d_25">
      <path d="M 52.160938 136.873254 
L 944.960938 136.873254 
" clip-path="url(#p484e5923d8)" style="fill: none; stroke: #b0b0b0; stroke-width: 0.8; stroke-linecap: square"/>
     </g>
     <g id="line2d_26">
      <g>
       <use xlink:href="#m1a31b73d96" x="52.160938" y="136.873254" style="stroke: #000000; stroke-width: 0.8"/>
      </g>
     </g>
     <g id="text_14">
      <!-- 1.0 -->
      <g transform="translate(29.257813 140.672473) scale(0.1 -0.1)">
       <defs>
        <path id="DejaVuSans-31" d="M 794 531 
L 1825 531 
L 1825 4091 
L 703 3866 
L 703 4441 
L 1819 4666 
L 2450 4666 
L 2450 531 
L 3481 531 
L 3481 0 
L 794 0 
L 794 531 
z
" transform="scale(0.015625)"/>
       </defs>
       <use xlink:href="#DejaVuSans-31"/>
       <use xlink:href="#DejaVuSans-2e" transform="translate(63.623047 0)"/>
       <use xlink:href="#DejaVuSans-30" transform="translate(95.410156 0)"/>
      </g>
     </g>
    </g>
    <g id="ytick_5">
     <g id="line2d_27">
      <path d="M 52.160938 34.97877 
L 944.960938 34.97877 
" clip-path="url(#p484e5923d8)" style="fill: none; stroke: #b0b0b0; stroke-width: 0.8; stroke-linecap: square"/>
     </g>
     <g id="line2d_28">
      <g>
       <use xlink:href="#m1a31b73d96" x="52.160938" y="34.97877" style="stroke: #000000; stroke-width: 0.8"/>
      </g>
     </g>
     <g id="text_15">
      <!-- 1.5 -->
      <g transform="translate(29.257813 38.777989) scale(0.1 -0.1)">
       <use xlink:href="#DejaVuSans-31"/>
       <use xlink:href="#DejaVuSans-2e" transform="translate(63.623047 0)"/>
       <use xlink:href="#DejaVuSans-35" transform="translate(95.410156 0)"/>
      </g>
     </g>
    </g>
    <g id="text_16">
     <!-- $Cl$ -->
     <g transform="translate(14.798438 261.58) rotate(-90) scale(0.1 -0.1)">
      <defs>
       <path id="DejaVuSans-Oblique-43" d="M 4447 4306 
L 4319 3641 
Q 4019 3944 3683 4091 
Q 3347 4238 2956 4238 
Q 2422 4238 2017 3981 
Q 1613 3725 1319 3200 
Q 1131 2863 1032 2486 
Q 934 2109 934 1728 
Q 934 1091 1264 756 
Q 1594 422 2222 422 
Q 2656 422 3056 561 
Q 3456 700 3834 978 
L 3688 231 
Q 3316 72 2936 -9 
Q 2556 -91 2175 -91 
Q 1278 -91 773 396 
Q 269 884 269 1753 
Q 269 2309 461 2846 
Q 653 3384 1013 3828 
Q 1394 4300 1883 4525 
Q 2372 4750 3022 4750 
Q 3422 4750 3780 4639 
Q 4138 4528 4447 4306 
z
" transform="scale(0.015625)"/>
      </defs>
      <use xlink:href="#DejaVuSans-Oblique-43" transform="translate(0 0.015625)"/>
      <use xlink:href="#DejaVuSans-Oblique-6c" transform="translate(69.824219 0.015625)"/>
     </g>
    </g>
   </g>
   <g id="line2d_29">
    <path d="M -1 303.428453 
L 12.480938 312.576296 
L 27.360938 322.968431 
L 52.160938 340.662222 
L 81.920938 361.905023 
L 96.800938 372.27958 
L 111.680938 382.338728 
L 121.600938 388.815825 
L 131.520938 395.073507 
L 141.440938 401.082045 
L 151.360938 406.813047 
L 161.280938 412.239602 
L 171.200938 417.336422 
L 181.120938 422.079979 
L 191.040938 426.448632 
L 200.960938 430.422755 
L 210.880938 433.98485 
L 220.800938 437.119661 
L 230.720938 439.814281 
L 240.640938 442.058254 
L 245.600938 443.008675 
L 250.560938 443.843674 
L 255.520938 444.562678 
L 260.480938 445.165286 
L 265.440938 445.651272 
L 270.400938 446.020588 
L 275.360938 446.273368 
L 280.320938 446.409934 
L 285.280938 446.430797 
L 290.240938 446.336662 
L 295.200938 446.128437 
L 300.160938 445.807233 
L 310.080938 444.831402 
L 320.000938 443.422448 
L 329.920938 441.597474 
L 339.840937 439.377822 
L 349.760938 436.789664 
L 359.680938 433.864856 
L 369.600937 430.642215 
L 379.520938 427.169454 
L 394.400938 421.626221 
L 414.240938 414.081784 
L 424.160938 410.557288 
L 429.120938 408.953859 
L 434.080938 407.51321 
L 439.040938 406.294327 
L 444.000938 405.37632 
L 448.960938 404.868446 
L 453.920938 404.926819 
L 458.880938 405.783652 
L 463.840937 407.801577 
L 468.800938 411.582278 
L 473.760938 418.205503 
L 478.720938 429.826583 
L 488.640938 385.449837 
L 518.400938 251.497862 
L 523.360937 229.67397 
L 528.320938 208.738087 
L 538.240937 164.303908 
L 548.160938 125.007807 
L 558.080938 84.744174 
L 568.000937 47.250597 
L 572.960938 29.88 
L 577.920938 45.036018 
L 582.880938 58.226623 
L 587.840937 69.792435 
L 592.800938 80.002959 
L 597.760938 89.074337 
L 602.720937 97.182033 
L 607.680938 104.470048 
L 612.640938 111.057738 
L 617.600937 117.044923 
L 622.560938 122.515771 
L 627.520938 127.541781 
L 632.480937 132.184109 
L 637.440938 136.495389 
L 642.400938 140.521181 
L 647.360938 144.301123 
L 652.320938 147.869868 
L 657.280938 151.257838 
L 667.200938 157.595595 
L 677.120938 163.494118 
L 687.040938 169.095412 
L 701.920938 177.181163 
L 731.680938 193.175855 
L 746.560938 201.43923 
L 761.440938 210.027306 
L 771.360938 215.96434 
L 781.280937 222.083306 
L 791.200938 228.388852 
L 801.120938 234.880805 
L 816.000937 244.957301 
L 830.880938 255.410832 
L 845.760937 266.192996 
L 860.640938 277.240661 
L 880.480937 292.251288 
L 920.160938 322.418821 
L 935.040938 333.466579 
L 949.920938 344.218288 
L 953.160937 346.538373 
L 953.160937 346.538373 
" clip-path="url(#p484e5923d8)" style="fill: none; stroke: #1f77b4; stroke-width: 1.5; stroke-linecap: square"/>
   </g>
   <g id="line2d_30">
    <path d="M -1 303.428453 
L 12.480938 312.576296 
L 27.360938 322.968431 
L 52.160938 340.662222 
L 81.920938 361.905009 
L 96.800938 372.279548 
L 111.680938 382.338671 
L 121.600938 388.815747 
L 131.520938 395.073405 
L 141.440938 401.081916 
L 151.360938 406.812887 
L 161.280938 412.239407 
L 171.200938 417.336189 
L 181.120938 422.079703 
L 191.040938 426.44831 
L 200.960938 430.422383 
L 210.880938 433.984423 
L 220.800938 437.119175 
L 230.720938 439.81373 
L 240.640938 442.057634 
L 245.600938 443.008018 
L 250.560938 443.842979 
L 255.520938 444.561943 
L 260.480938 445.16451 
L 265.440938 445.650452 
L 270.400938 446.019723 
L 275.360938 446.272457 
L 280.320938 446.408974 
L 285.280938 446.429786 
L 290.240938 446.335599 
L 295.200938 446.127318 
L 300.160938 445.806056 
L 310.080938 444.830102 
L 320.000938 443.421013 
L 329.920938 441.59589 
L 339.840937 439.376073 
L 349.760938 436.787731 
L 359.680938 433.862716 
L 369.600937 430.63984 
L 379.520938 427.16681 
L 394.400938 421.623087 
L 414.240938 414.077753 
L 424.160938 410.552642 
L 429.120938 408.948844 
L 434.080938 407.507771 
L 439.040938 406.288397 
L 444.000938 405.369812 
L 448.960938 404.861249 
L 453.920938 404.918782 
L 458.880938 405.774572 
L 463.840937 407.79116 
L 468.800938 411.570085 
L 473.760938 418.190829 
L 478.720938 429.808199 
L 488.640938 385.500471 
L 518.400938 251.51072 
L 523.360937 229.868035 
L 528.320938 209.308496 
L 538.240937 164.613931 
L 548.160938 126.760873 
L 558.080938 87.797038 
L 563.040938 69.392741 
L 568.000937 51.701331 
L 572.960938 35.88885 
L 577.920938 50.623874 
L 582.880938 63.440458 
L 587.840937 74.671429 
L 592.800938 84.580141 
L 597.760938 93.377819 
L 602.720937 101.235945 
L 607.680938 108.295267 
L 612.640938 114.672454 
L 617.600937 120.465088 
L 622.560938 125.755458 
L 627.520938 130.613478 
L 632.480937 135.098951 
L 637.440938 139.263354 
L 642.400938 143.151251 
L 647.360938 146.801418 
L 652.320938 150.247759 
L 657.280938 153.52004 
L 667.200938 159.644335 
L 677.120938 165.350198 
L 687.040938 170.776624 
L 701.920938 178.628324 
L 731.680938 194.235936 
L 746.560938 202.338274 
L 761.440938 210.783228 
L 771.360938 216.63379 
L 781.280937 222.672863 
L 791.200938 228.90469 
L 801.120938 235.328748 
L 811.040938 241.940232 
L 825.920938 252.188946 
L 840.800938 262.795345 
L 855.680938 273.700408 
L 875.520937 288.578572 
L 930.080938 329.818222 
L 944.960938 340.662222 
L 953.160937 346.538373 
L 953.160937 346.538373 
" clip-path="url(#p484e5923d8)" style="fill: none; stroke: #ff7f0e; stroke-width: 1.5; stroke-linecap: square"/>
   </g>
   <g id="line2d_31">
    <path d="M -1 303.428453 
L 12.480938 312.576296 
L 27.360938 322.968431 
L 52.160938 340.662222 
L 81.920938 361.90505 
L 96.800938 372.279641 
L 111.680938 382.338837 
L 121.600938 388.815975 
L 131.520938 395.073703 
L 141.440938 401.082294 
L 151.360938 406.813356 
L 161.280938 412.239977 
L 171.200938 417.336871 
L 181.120938 422.080508 
L 191.040938 426.449251 
L 200.960938 430.42347 
L 210.880938 433.98567 
L 220.800938 437.120596 
L 230.720938 439.815339 
L 240.640938 442.059446 
L 245.600938 443.009938 
L 250.560938 443.845011 
L 255.520938 444.564092 
L 260.480938 445.16678 
L 265.440938 445.652848 
L 270.400938 446.02225 
L 275.360938 446.275121 
L 280.320938 446.41178 
L 285.280938 446.432741 
L 290.240938 446.338708 
L 295.200938 446.130589 
L 300.160938 445.809496 
L 310.080938 444.833902 
L 320.000938 443.425208 
L 329.920938 441.60052 
L 339.840937 439.381186 
L 349.760938 436.793382 
L 359.680938 433.868972 
L 369.600937 430.646783 
L 379.520938 427.174539 
L 394.400938 421.632249 
L 414.240938 414.089537 
L 424.160938 410.566223 
L 429.120938 408.963505 
L 434.080938 407.523671 
L 439.040938 406.305733 
L 444.000938 405.388837 
L 448.960938 404.882289 
L 453.920938 404.942275 
L 458.880938 405.801116 
L 463.840937 407.821613 
L 468.800938 411.605731 
L 473.760938 418.233726 
L 478.720938 429.861942 
L 488.640938 385.658749 
L 513.440938 273.437329 
L 518.400938 251.462503 
L 523.360937 230.395513 
L 528.320938 210.604401 
L 533.280938 188.809506 
L 548.160938 130.442152 
L 553.120938 112.548501 
L 563.040938 77.94711 
L 568.000937 62.490713 
L 572.960938 49.038099 
L 577.920938 62.851857 
L 582.880938 74.849966 
L 587.840937 85.3482 
L 592.800938 94.596453 
L 597.760938 102.795188 
L 602.720937 110.107178 
L 607.680938 116.666048 
L 612.640938 122.582587 
L 617.600937 127.949482 
L 622.560938 132.844913 
L 627.520938 137.335316 
L 632.480937 141.47754 
L 637.440938 145.32053 
L 642.400938 148.90667 
L 647.360938 152.272849 
L 652.320938 155.45133 
L 657.280938 158.470447 
L 667.200938 164.127621 
L 677.120938 169.411883 
L 687.040938 174.455642 
L 706.880938 184.222441 
L 726.720937 194.042858 
L 741.600937 201.68357 
L 751.520938 206.970479 
L 761.440938 212.437425 
L 771.360938 218.098757 
L 781.280937 223.963 
L 791.200938 230.033505 
L 801.120938 236.308989 
L 811.040938 242.783999 
L 820.960938 249.449307 
L 835.840937 259.775559 
L 850.720937 270.445317 
L 865.600938 281.389488 
L 885.440938 296.267496 
L 925.120938 326.155586 
L 940.000937 337.085818 
L 953.160937 346.538373 
L 953.160937 346.538373 
" clip-path="url(#p484e5923d8)" style="fill: none; stroke: #2ca02c; stroke-width: 1.5; stroke-linecap: square"/>
   </g>
   <g id="line2d_32">
    <path d="M -1 303.428453 
L 12.480938 312.576296 
L 27.360938 322.968431 
L 52.160938 340.662222 
L 81.920938 361.880024 
L 96.800938 372.223201 
L 111.680938 382.238167 
L 121.600938 388.678573 
L 131.520938 394.893658 
L 141.440938 400.853573 
L 151.360938 406.529783 
L 161.280938 411.895205 
L 171.200938 416.924352 
L 181.120938 421.593462 
L 191.040938 425.88062 
L 200.960938 429.765879 
L 210.880938 433.231367 
L 220.800938 436.261392 
L 230.720938 438.842532 
L 235.680938 439.96122 
L 240.640938 440.963728 
L 245.600938 441.849056 
L 250.560938 442.616361 
L 255.520938 443.264961 
L 260.480938 443.794334 
L 265.440938 444.204123 
L 270.400938 444.494138 
L 275.360938 444.664357 
L 280.320938 444.714929 
L 285.280938 444.646177 
L 290.240938 444.4586 
L 295.200938 444.152874 
L 300.160938 443.729859 
L 305.120938 443.1906 
L 310.080938 442.536329 
L 320.000938 440.888657 
L 329.920938 438.800677 
L 339.840937 436.289622 
L 349.760938 433.376435 
L 359.680938 430.086223 
L 369.600937 426.448948 
L 379.520938 422.500483 
L 389.440938 418.284295 
L 399.360938 413.854174 
L 419.200938 404.650217 
L 429.120938 400.09848 
L 439.040938 395.822945 
L 444.000938 393.88504 
L 448.960938 392.15958 
L 453.920938 390.736847 
L 458.880938 389.750299 
L 463.840937 389.40737 
L 468.800938 390.051078 
L 473.760938 392.295554 
L 478.720938 397.364889 
L 483.680938 408.109673 
L 493.600938 363.304799 
L 513.440938 273.214772 
L 518.400938 251.208844 
L 523.360937 231.045851 
L 528.320938 211.64237 
L 533.280938 190.94325 
L 538.240937 167.619346 
L 543.200938 149.299286 
L 548.160938 133.760381 
L 558.080938 101.476285 
L 563.040938 86.808585 
L 568.000937 73.31366 
L 572.960938 61.237235 
L 577.920938 74.196294 
L 582.880938 85.435069 
L 587.840937 95.253509 
L 592.800938 103.889026 
L 597.760938 111.532095 
L 602.720937 118.33741 
L 607.680938 124.431988 
L 612.640938 129.921165 
L 617.600937 134.893084 
L 622.560938 139.422111 
L 627.520938 143.571461 
L 632.480937 147.395238 
L 637.440938 150.940039 
L 642.400938 154.246224 
L 647.360938 157.348935 
L 652.320938 160.278911 
L 662.240937 165.725484 
L 672.160938 170.766285 
L 682.080938 175.543189 
L 701.920938 184.733185 
L 721.760937 193.951275 
L 736.640938 201.140213 
L 746.560938 206.1309 
L 756.480937 211.308163 
L 766.400938 216.688296 
L 776.320938 222.281591 
L 786.240937 228.093011 
L 796.160938 234.122766 
L 806.080938 240.366783 
L 816.000937 246.817118 
L 825.920938 253.462318 
L 840.800938 263.762655 
L 855.680938 274.406428 
L 870.560938 285.319551 
L 895.360938 303.871631 
L 925.120938 326.172093 
L 940.000937 337.086848 
L 953.160937 346.538373 
L 953.160937 346.538373 
" clip-path="url(#p484e5923d8)" style="fill: none; stroke: #d62728; stroke-width: 1.5; stroke-linecap: square"/>
   </g>
   <g id="line2d_33">
    <path d="M -1 303.428453 
L 12.480938 312.576296 
L 27.360938 322.968431 
L 52.160938 340.662222 
L 81.920938 361.935624 
L 96.800938 372.348593 
L 111.680938 382.461823 
L 121.600938 388.983835 
L 131.520938 395.293659 
L 141.440938 401.361715 
L 151.360938 407.159788 
L 161.280938 412.661175 
L 171.200938 417.840833 
L 181.120938 422.67552 
L 191.040938 427.143931 
L 200.960938 431.226831 
L 210.880938 434.907181 
L 220.800938 438.17026 
L 230.720938 441.003789 
L 240.640938 443.398053 
L 250.560938 445.346016 
L 255.520938 446.151203 
L 260.480938 446.843458 
L 265.440938 447.422715 
L 270.400938 447.889102 
L 275.360938 448.242945 
L 280.320938 448.484775 
L 290.240938 448.635583 
L 300.160938 448.350127 
L 310.080938 447.64078 
L 320.000938 446.524039 
L 329.920938 445.021008 
L 339.840937 443.15806 
L 349.760938 440.967767 
L 359.680938 438.490247 
L 369.600937 435.775157 
L 384.480938 431.397684 
L 404.320938 425.476724 
L 414.240938 422.794332 
L 419.200938 421.615922 
L 424.160938 420.59834 
L 429.120938 419.793652 
L 434.080938 419.26889 
L 439.040938 419.112254 
L 444.000938 419.442696 
L 448.960938 420.425258 
L 453.920938 422.296639 
L 458.880938 425.409939 
L 463.840937 430.317764 
L 468.800938 437.938433 
L 473.760938 449.921645 
L 483.680938 408.534194 
L 488.640938 386.277436 
L 513.440938 272.79025 
L 518.400938 250.836459 
L 528.320938 211.73503 
L 533.280938 191.61281 
L 538.240937 169.411136 
L 543.200938 149.605654 
L 548.160938 135.005692 
L 553.120938 119.73094 
L 563.040938 92.224874 
L 568.000937 79.910933 
L 572.960938 70.681745 
L 577.920938 82.9791 
L 582.880938 93.630001 
L 587.840937 102.922149 
L 592.800938 111.083289 
L 597.760938 118.296164 
L 602.720937 124.709213 
L 607.680938 130.44434 
L 612.640938 135.602655 
L 617.600937 140.268785 
L 622.560938 144.514144 
L 627.520938 148.399452 
L 632.480937 151.976689 
L 637.440938 155.290634 
L 642.400938 158.380081 
L 647.360938 161.278816 
L 652.320938 164.0164 
L 662.240937 169.108952 
L 672.160938 173.831252 
L 687.040938 180.511301 
L 721.760937 195.803838 
L 736.640938 202.718683 
L 746.560938 207.543988 
L 756.480937 212.568364 
L 766.400938 217.807136 
L 776.320938 223.269773 
L 786.240937 228.960546 
L 796.160938 234.879072 
L 806.080938 241.020774 
L 816.000937 247.377278 
L 825.920938 253.936762 
L 840.800938 264.123063 
L 855.680938 274.669483 
L 870.560938 285.501244 
L 890.400938 300.238313 
L 930.080938 329.844695 
L 944.960938 340.662222 
L 953.160937 346.538373 
L 953.160937 346.538373 
" clip-path="url(#p484e5923d8)" style="fill: none; stroke: #9467bd; stroke-width: 1.5; stroke-linecap: square"/>
   </g>
   <g id="line2d_34">
    <path d="M -1 303.428453 
L 12.480938 312.576296 
L 27.360938 322.968431 
L 52.160938 340.662222 
L 81.920938 361.935805 
L 96.800938 372.349001 
L 111.680938 382.46255 
L 121.600938 388.984827 
L 131.520938 395.29496 
L 141.440938 401.363368 
L 151.360938 407.161837 
L 161.280938 412.663666 
L 171.200938 417.843813 
L 181.120938 422.679038 
L 191.040938 427.148039 
L 200.960938 431.231582 
L 210.880938 434.91263 
L 220.800938 438.176467 
L 230.720938 441.010818 
L 240.640938 443.405969 
L 250.560938 445.354893 
L 255.520938 446.160589 
L 260.480938 446.853373 
L 265.440938 447.433182 
L 270.400938 447.900142 
L 275.360938 448.254582 
L 280.320938 448.497035 
L 290.240938 448.649167 
L 300.160938 448.365153 
L 310.080938 447.65738 
L 320.000938 446.542365 
L 329.920938 445.041237 
L 339.840937 443.180397 
L 349.760938 440.992454 
L 359.680938 438.517578 
L 369.600937 435.805486 
L 384.480938 431.433375 
L 404.320938 425.521918 
L 414.240938 422.845813 
L 419.200938 421.671096 
L 424.160938 420.657671 
L 429.120938 419.857702 
L 434.080938 419.338352 
L 439.040938 419.187992 
L 444.000938 419.525811 
L 448.960938 420.51718 
L 453.920938 422.399273 
L 458.880938 425.525907 
L 463.840937 430.450808 
L 468.800938 438.094166 
L 473.760938 450.109049 
L 488.640938 386.649971 
L 513.440938 272.209942 
L 518.400938 250.551275 
L 523.360937 231.215396 
L 538.240937 170.774361 
L 543.200938 148.07281 
L 548.160938 133.840742 
L 553.120938 120.888577 
L 558.080938 106.482695 
L 563.040938 93.372517 
L 572.960938 74.389144 
L 577.920938 86.426751 
L 582.880938 96.846884 
L 587.840937 105.93244 
L 592.800938 113.907364 
L 597.760938 120.951368 
L 602.720937 127.210436 
L 607.680938 132.804461 
L 612.640938 137.832898 
L 617.600937 142.378992 
L 622.560938 146.512999 
L 627.520938 150.294658 
L 632.480937 153.775117 
L 637.440938 156.99844 
L 642.400938 160.002807 
L 647.360938 162.821473 
L 652.320938 165.483535 
L 662.240937 170.437117 
L 672.160938 175.034391 
L 687.040938 181.548591 
L 716.800938 194.335781 
L 731.680938 201.028159 
L 741.600937 205.69418 
L 751.520938 210.554294 
L 761.440938 215.626626 
L 771.360938 220.923133 
L 781.280937 226.450314 
L 791.200938 232.209799 
L 801.120938 238.198841 
L 811.040938 244.410735 
L 820.960938 250.835186 
L 830.880938 257.458633 
L 845.760937 267.730002 
L 860.640938 278.344313 
L 875.520937 289.222769 
L 900.320938 307.695136 
L 930.080938 329.847516 
L 944.960938 340.662222 
L 953.160937 346.538373 
L 953.160937 346.538373 
" clip-path="url(#p484e5923d8)" style="fill: none; stroke: #8c564b; stroke-width: 1.5; stroke-linecap: square"/>
   </g>
   <g id="line2d_35">
    <path d="M -1 303.428453 
L 12.480938 312.576296 
L 27.360938 322.968431 
L 52.160938 340.662222 
L 81.920938 361.936394 
L 96.800938 372.35033 
L 111.680938 382.464921 
L 121.600938 388.988062 
L 131.520938 395.299199 
L 141.440938 401.368753 
L 151.360938 407.168514 
L 161.280938 412.671783 
L 171.200938 417.853526 
L 181.120938 422.690505 
L 191.040938 427.161427 
L 200.960938 431.247065 
L 210.880938 434.93039 
L 220.800938 438.196697 
L 230.720938 441.033722 
L 240.640938 443.431767 
L 250.560938 445.383821 
L 255.520938 446.191176 
L 260.480938 446.885686 
L 265.440938 447.467291 
L 270.400938 447.93612 
L 275.360938 448.292506 
L 285.280938 448.670305 
L 295.200938 448.607559 
L 305.120938 448.114776 
L 315.040938 447.206413 
L 324.960938 445.901291 
L 334.880938 444.223165 
L 344.800938 442.20151 
L 354.720937 439.872653 
L 364.640938 437.281417 
L 374.560938 434.483586 
L 409.280938 424.297499 
L 414.240938 423.013571 
L 419.200938 421.850889 
L 424.160938 420.85101 
L 429.120938 420.066421 
L 434.080938 419.564705 
L 439.040938 419.434799 
L 444.000938 419.796657 
L 448.960938 420.816724 
L 453.920938 422.733727 
L 458.880938 425.903808 
L 463.840937 430.884353 
L 468.800938 438.601649 
L 473.760938 450.719738 
L 488.640938 387.086184 
L 513.440938 271.519983 
L 518.400938 250.412735 
L 523.360937 230.587383 
L 538.240937 168.019188 
L 543.200938 147.076508 
L 548.160938 133.296851 
L 553.120938 118.460497 
L 558.080938 104.542257 
L 563.040938 93.291745 
L 568.000937 82.716827 
L 572.960938 74.445856 
L 577.920938 86.479489 
L 582.880938 96.896092 
L 587.840937 105.978488 
L 592.800938 113.950563 
L 597.760938 120.991985 
L 602.720937 127.248697 
L 607.680938 132.840564 
L 612.640938 137.867014 
L 617.600937 142.411271 
L 622.560938 146.543575 
L 627.520938 150.323649 
L 632.480937 153.802627 
L 637.440938 157.024564 
L 642.400938 160.02763 
L 647.360938 162.84507 
L 652.320938 165.505977 
L 662.240937 170.457434 
L 672.160938 175.052796 
L 687.040938 181.564458 
L 716.800938 194.3475 
L 731.680938 201.038164 
L 741.600937 205.703152 
L 751.520938 210.562311 
L 761.440938 215.633761 
L 771.360938 220.929452 
L 781.280937 226.455878 
L 791.200938 232.214668 
L 801.120938 238.203069 
L 811.040938 244.414374 
L 820.960938 250.838287 
L 830.880938 257.461243 
L 845.760937 267.73196 
L 860.640938 278.345719 
L 875.520937 289.223718 
L 900.320938 307.695526 
L 930.080938 329.847559 
L 944.960938 340.662222 
L 953.160937 346.538373 
L 953.160937 346.538373 
" clip-path="url(#p484e5923d8)" style="fill: none; stroke: #e377c2; stroke-width: 1.5; stroke-linecap: square"/>
   </g>
   <g id="line2d_36">
    <path d="M -1 303.428453 
L 12.480938 312.576296 
L 27.360938 322.968431 
L 52.160938 340.662222 
L 81.920938 361.937143 
L 96.800938 372.352018 
L 111.680938 382.467932 
L 121.600938 388.992173 
L 131.520938 395.304584 
L 141.440938 401.375595 
L 151.360938 407.176996 
L 161.280938 412.682097 
L 171.200938 417.865866 
L 181.120938 422.705075 
L 191.040938 427.178437 
L 200.960938 431.266736 
L 210.880938 434.952954 
L 220.800938 438.222399 
L 230.720938 441.062822 
L 240.640938 443.464544 
L 250.560938 445.420575 
L 255.520938 446.230038 
L 260.480938 446.926742 
L 265.440938 447.510628 
L 270.400938 447.981832 
L 275.360938 448.340691 
L 285.280938 448.723748 
L 295.200938 448.666721 
L 305.120938 448.180173 
L 315.040938 447.278633 
L 324.960938 445.98101 
L 334.880938 444.311167 
L 344.800938 442.29872 
L 354.720937 439.980172 
L 364.640938 437.400579 
L 374.560938 434.616027 
L 409.280938 424.496957 
L 414.240938 423.226718 
L 419.200938 422.079326 
L 424.160938 421.096657 
L 429.120938 420.331609 
L 434.080938 419.8523 
L 439.040938 419.748381 
L 444.000938 420.140781 
L 448.960938 421.19731 
L 453.920938 423.158667 
L 458.880938 426.383951 
L 463.840937 431.435196 
L 468.800938 439.246434 
L 473.760938 451.495652 
L 488.640938 387.678908 
L 498.560938 340.662222 
L 508.480938 293.645537 
L 513.440938 270.663153 
L 518.400938 249.987607 
L 523.360937 229.810338 
L 528.320938 207.972146 
L 533.280938 187.038234 
L 543.200938 146.923607 
L 548.160938 129.791364 
L 553.120938 115.298144 
L 563.040938 90.980743 
L 568.000937 80.861287 
L 572.960938 74.949503 
L 577.920938 86.947849 
L 582.880938 97.333103 
L 587.840937 106.387433 
L 592.800938 114.334212 
L 597.760938 121.352692 
L 602.720937 127.588486 
L 607.680938 133.161184 
L 612.640938 138.16999 
L 617.600937 142.697941 
L 622.560938 146.815118 
L 627.520938 150.581111 
L 632.480937 154.046942 
L 637.440938 157.256568 
L 642.400938 160.248076 
L 647.360938 163.054639 
L 652.320938 165.705286 
L 662.240937 170.637864 
L 672.160938 175.216241 
L 687.040938 181.705373 
L 716.800938 194.451572 
L 731.680938 201.127018 
L 741.600937 205.782831 
L 751.520938 210.633511 
L 761.440938 215.69712 
L 771.360938 220.985563 
L 781.280937 226.505294 
L 791.200938 232.257904 
L 801.120938 238.240614 
L 811.040938 244.446692 
L 820.960938 250.86582 
L 830.880938 257.484415 
L 845.760937 267.749352 
L 860.640938 278.358208 
L 875.520937 289.232145 
L 900.320938 307.698987 
L 930.080938 329.847942 
L 944.960938 340.662222 
L 953.160937 346.538373 
L 953.160937 346.538373 
" clip-path="url(#p484e5923d8)" style="fill: none; stroke: #7f7f7f; stroke-width: 1.5; stroke-linecap: square"/>
   </g>
   <g id="line2d_37">
    <path d="M -1 303.428453 
L 12.480938 312.576296 
L 27.360938 322.968431 
L 52.160938 340.662222 
L 86.880938 365.437332 
L 101.760938 375.767152 
L 116.640938 385.762279 
L 126.560938 392.186945 
L 136.480938 398.385221 
L 146.400937 404.328205 
L 156.320938 409.988441 
L 166.240938 415.34006 
L 176.160938 420.358929 
L 186.080938 425.022792 
L 196.000938 429.311398 
L 205.920938 433.206637 
L 215.840938 436.692666 
L 225.760938 439.756029 
L 235.680938 442.385784 
L 245.600938 444.573622 
L 255.520938 446.313995 
L 260.480938 447.015437 
L 265.440938 447.604252 
L 270.400938 448.080587 
L 275.360938 448.444787 
L 285.280938 448.839206 
L 295.200938 448.794531 
L 305.120938 448.321454 
L 315.040938 447.434654 
L 324.960938 446.153232 
L 334.880938 444.501286 
L 344.800938 442.508731 
L 354.720937 440.212456 
L 364.640938 437.658012 
L 374.560938 434.902151 
L 409.280938 424.927861 
L 414.240938 423.687195 
L 419.200938 422.572836 
L 424.160938 421.627348 
L 429.120938 420.904515 
L 434.080938 420.473613 
L 439.040938 420.425836 
L 444.000938 420.884219 
L 448.960938 422.019521 
L 453.920938 424.0767 
L 458.880938 427.421243 
L 463.840937 432.625225 
L 468.800938 440.639414 
L 473.760938 453.171918 
L 478.720938 432.167819 
L 493.600938 364.851161 
L 503.520938 316.473283 
L 513.440938 269.658871 
L 518.400938 249.156626 
L 523.360937 228.133224 
L 528.320938 205.739377 
L 533.280938 184.059705 
L 538.240937 163.480251 
L 543.200938 145.83471 
L 548.160938 126.664306 
L 558.080938 100.039849 
L 563.040938 87.933999 
L 568.000937 80.402737 
L 572.960938 75.052608 
L 577.920938 87.043731 
L 582.880938 97.422567 
L 587.840937 106.471151 
L 592.800938 114.412751 
L 597.760938 121.426535 
L 602.720937 127.658047 
L 607.680938 133.226821 
L 612.640938 138.232015 
L 617.600937 142.756628 
L 622.560938 146.870707 
L 627.520938 150.633818 
L 632.480937 154.096958 
L 637.440938 157.304063 
L 642.400938 160.293205 
L 647.360938 163.097541 
L 652.320938 165.746088 
L 662.240937 170.674801 
L 672.160938 175.249701 
L 687.040938 181.734221 
L 716.800938 194.472877 
L 731.680938 201.145208 
L 741.600937 205.799142 
L 751.520938 210.648087 
L 761.440938 215.710091 
L 771.360938 220.99705 
L 781.280937 226.51541 
L 791.200938 232.266755 
L 801.120938 238.2483 
L 811.040938 244.453309 
L 820.960938 250.871456 
L 830.880938 257.489158 
L 845.760937 267.752913 
L 860.640938 278.360764 
L 875.520937 289.23387 
L 900.320938 307.699696 
L 930.080938 329.84802 
L 944.960938 340.662222 
L 953.160937 346.538373 
L 953.160937 346.538373 
" clip-path="url(#p484e5923d8)" style="fill: none; stroke: #bcbd22; stroke-width: 1.5; stroke-linecap: square"/>
   </g>
   <g id="line2d_38">
    <path d="M -1 303.428453 
L 12.480938 312.576296 
L 27.360938 322.968431 
L 52.160938 340.662222 
L 86.880938 365.440248 
L 101.760938 375.77312 
L 116.640938 385.772402 
L 126.560938 392.200462 
L 136.480938 398.402644 
L 146.400937 404.350056 
L 156.320938 410.015254 
L 166.240938 415.372388 
L 176.160938 420.397341 
L 186.080938 425.067879 
L 196.000938 429.363778 
L 205.920938 433.266957 
L 215.840938 436.761606 
L 225.760938 439.834312 
L 235.680938 442.474179 
L 245.600938 444.672953 
L 255.520938 446.425156 
L 260.480938 447.132871 
L 265.440938 447.728214 
L 270.400938 448.211341 
L 280.320938 448.842597 
L 290.240938 449.032049 
L 300.160938 448.788669 
L 310.080938 448.125279 
L 320.000938 447.058932 
L 329.920938 445.611423 
L 339.840937 443.809991 
L 349.760938 441.688313 
L 359.680938 439.287931 
L 369.600937 436.660372 
L 384.480938 432.439389 
L 404.320938 426.795796 
L 414.240938 424.296878 
L 419.200938 423.226255 
L 424.160938 422.329997 
L 429.120938 421.663057 
L 434.080938 421.296247 
L 439.040938 421.322803 
L 444.000938 421.86855 
L 448.960938 423.108149 
L 453.920938 425.292197 
L 458.880938 428.794643 
L 463.840937 434.200853 
L 468.800938 442.483753 
L 473.760938 455.391337 
L 478.720938 433.454671 
L 493.600938 365.410967 
L 503.520938 315.933422 
L 508.480938 291.862767 
L 513.440938 268.629753 
L 518.400938 247.869773 
L 523.360937 225.913164 
L 533.280938 180.643766 
L 538.240937 160.242775 
L 548.160938 123.449502 
L 553.120938 110.547388 
L 558.080938 97.14668 
L 563.040938 87.854399 
L 568.000937 80.955377 
L 572.960938 82.013941 
L 577.920938 93.517337 
L 582.880938 103.462865 
L 587.840937 112.123531 
L 592.800938 119.715478 
L 597.760938 126.412176 
L 602.720937 132.354558 
L 607.680938 137.658388 
L 612.640938 142.419711 
L 617.600937 146.718934 
L 622.560938 150.623929 
L 627.520938 154.19242 
L 632.480937 157.473841 
L 637.440938 160.510788 
L 642.400938 163.340176 
L 647.360938 165.994167 
L 657.280938 170.885135 
L 667.200938 175.370857 
L 677.120938 179.597824 
L 696.960938 187.715498 
L 716.800938 195.911337 
L 731.680938 202.373326 
L 741.600937 206.900446 
L 751.520938 211.632193 
L 761.440938 216.585838 
L 771.360938 221.772617 
L 781.280937 227.19842 
L 791.200938 232.86436 
L 801.120938 238.767249 
L 811.040938 244.900006 
L 820.960938 251.252015 
L 830.880938 257.809439 
L 845.760937 267.993304 
L 860.640938 278.533378 
L 875.520937 289.350349 
L 900.320938 307.747542 
L 930.080938 329.853317 
L 944.960938 340.662222 
L 953.160937 346.538373 
L 953.160937 346.538373 
" clip-path="url(#p484e5923d8)" style="fill: none; stroke: #17becf; stroke-width: 1.5; stroke-linecap: square"/>
   </g>
   <g id="line2d_39">
    <path d="M -1 303.428453 
L 12.480938 312.576296 
L 27.360938 322.968431 
L 52.160938 340.662222 
L 86.880938 365.443809 
L 101.760938 375.780407 
L 116.640938 385.784762 
L 126.560938 392.216967 
L 136.480938 398.423917 
L 146.400937 404.376735 
L 156.320938 410.047994 
L 166.240938 415.41186 
L 176.160938 420.444242 
L 186.080938 425.122932 
L 196.000938 429.427735 
L 205.920938 433.340607 
L 215.840938 436.845782 
L 225.760938 439.929895 
L 235.680938 442.582108 
L 245.600938 444.794237 
L 255.520938 446.560883 
L 265.440938 447.87957 
L 275.360938 448.750899 
L 285.280938 449.178726 
L 295.200938 449.170379 
L 305.120938 448.736913 
L 315.040938 447.89346 
L 324.960938 446.659677 
L 334.880938 445.060359 
L 344.800938 443.126302 
L 354.720937 440.89552 
L 364.640938 438.415036 
L 379.520938 434.358662 
L 404.320938 427.449316 
L 414.240938 425.041298 
L 419.200938 424.024077 
L 424.160938 423.187928 
L 429.120938 422.589235 
L 434.080938 422.30068 
L 439.040938 422.417997 
L 444.000938 423.070414 
L 448.960938 424.43736 
L 453.920938 426.776316 
L 458.880938 430.471559 
L 463.840937 436.124689 
L 468.800938 444.735685 
L 473.760938 458.101238 
L 478.720938 435.275549 
L 483.680938 413.88035 
L 493.600938 365.981055 
L 503.520938 315.363825 
L 508.480938 290.698932 
L 513.440938 267.444094 
L 518.400938 246.048896 
L 523.360937 223.20277 
L 528.320938 199.641399 
L 533.280938 176.815709 
L 538.240937 155.972272 
L 543.200938 137.908076 
L 548.160938 121.928311 
L 553.120938 108.380381 
L 558.080938 96.549042 
L 563.040938 90.521412 
L 568.000937 90.91056 
L 572.960938 99.760044 
L 577.920938 110.020108 
L 582.880938 118.86103 
L 587.840937 126.532801 
L 592.800938 133.233399 
L 597.760938 139.121769 
L 602.720937 144.327089 
L 607.680938 148.955515 
L 612.640938 153.095153 
L 617.600937 156.819802 
L 622.560938 160.191789 
L 627.520938 163.26415 
L 632.480937 166.082325 
L 637.440938 168.685495 
L 642.400938 171.107635 
L 647.360938 173.378358 
L 657.280938 177.566158 
L 667.200938 181.421457 
L 682.080938 186.868778 
L 706.880938 195.835339 
L 721.760937 201.507617 
L 731.680938 205.504094 
L 741.600937 209.707932 
L 751.520938 214.140916 
L 761.440938 218.818326 
L 771.360938 223.749722 
L 781.280937 228.939577 
L 791.200938 234.387798 
L 801.120938 240.090173 
L 811.040938 246.038746 
L 820.960938 252.222151 
L 830.880938 258.625912 
L 840.800938 265.232709 
L 855.680938 275.479392 
L 870.560938 286.060649 
L 890.400938 300.537491 
L 940.000937 337.090104 
L 953.160937 346.538373 
L 953.160937 346.538373 
" clip-path="url(#p484e5923d8)" style="fill: none; stroke: #1f77b4; stroke-width: 1.5; stroke-linecap: square"/>
   </g>
   <g id="line2d_40">
    <path d="M -1 303.428453 
L 12.480938 312.576296 
L 27.360938 322.968431 
L 52.160938 340.662222 
L 86.880938 365.447915 
L 101.760938 375.788808 
L 116.640938 385.799012 
L 126.560938 392.235996 
L 136.480938 398.448444 
L 146.400937 404.407495 
L 156.320938 410.08574 
L 166.240938 415.457369 
L 176.160938 420.498317 
L 186.080938 425.186404 
L 196.000938 429.501473 
L 205.920938 433.425522 
L 215.840938 436.942833 
L 225.760938 440.040097 
L 235.680938 442.706545 
L 245.600938 444.934071 
L 255.520938 446.71737 
L 265.440938 448.054076 
L 275.360938 448.944923 
L 285.280938 449.393927 
L 295.200938 449.408604 
L 305.120938 449.000246 
L 315.040938 448.184268 
L 324.960938 446.98068 
L 334.880938 445.41472 
L 344.800938 443.517741 
L 354.720937 441.328472 
L 364.640938 438.894866 
L 379.520938 434.921676 
L 399.360938 429.483355 
L 409.280938 426.998163 
L 414.240938 425.899579 
L 419.200938 424.943928 
L 424.160938 424.177081 
L 429.120938 423.657072 
L 434.080938 423.458742 
L 439.040938 423.680703 
L 444.000938 424.456106 
L 448.960938 425.969875 
L 453.920938 428.487432 
L 458.880938 432.404962 
L 463.840937 438.342779 
L 468.800938 447.332054 
L 473.760938 461.225624 
L 493.600938 366.660827 
L 503.520938 314.663617 
L 508.480938 289.393571 
L 523.360937 220.098821 
L 528.320938 195.744675 
L 533.280938 172.82683 
L 538.240937 151.490997 
L 543.200938 134.110192 
L 548.160938 119.976675 
L 553.120938 107.612513 
L 568.000937 116.169391 
L 572.960938 130.491269 
L 577.920938 138.598234 
L 582.880938 145.526291 
L 587.840937 151.485575 
L 592.800938 156.642609 
L 597.760938 161.131183 
L 602.720937 165.060123 
L 607.680938 168.518938 
L 612.640938 171.581993 
L 617.600937 174.311645 
L 622.560938 176.760614 
L 627.520938 178.973816 
L 632.480937 180.989782 
L 637.440938 182.841774 
L 647.360938 186.165686 
L 657.280938 189.135796 
L 672.160938 193.24086 
L 696.960938 199.992371 
L 706.880938 202.871318 
L 716.800938 205.928489 
L 726.720937 209.200272 
L 736.640938 212.714709 
L 746.560938 216.49269 
L 756.480937 220.548877 
L 766.400938 224.892444 
L 776.320938 229.527666 
L 786.240937 234.454411 
L 796.160938 239.668552 
L 806.080938 245.162321 
L 816.000937 250.924617 
L 825.920938 256.941284 
L 835.840937 263.195366 
L 845.760937 269.66734 
L 855.680938 276.335339 
L 870.560938 286.651852 
L 885.440938 297.266047 
L 905.280937 311.712375 
L 940.000937 337.092701 
L 953.160937 346.538373 
L 953.160937 346.538373 
" clip-path="url(#p484e5923d8)" style="fill: none; stroke: #ff7f0e; stroke-width: 1.5; stroke-linecap: square"/>
   </g>
   <g id="line2d_41">
    <path d="M -1 303.428453 
L 12.480938 312.576296 
L 27.360938 322.968431 
L 52.160938 340.662222 
L 81.920938 361.912393 
L 96.800938 372.2962 
L 111.680938 382.368373 
L 121.600938 388.856287 
L 131.520938 395.126526 
L 141.440938 401.149398 
L 151.360938 406.896553 
L 161.280938 412.341129 
L 171.200938 417.457899 
L 181.120938 422.223402 
L 191.040938 426.61608 
L 200.960938 430.6164 
L 210.880938 434.206974 
L 220.800938 437.372675 
L 230.720938 440.100749 
L 240.640938 442.380916 
L 245.600938 443.350526 
L 250.560938 444.205481 
L 255.520938 444.945241 
L 260.480938 445.569439 
L 265.440938 446.077887 
L 270.400938 446.47058 
L 275.360938 446.747699 
L 280.320938 446.909616 
L 285.280938 446.956896 
L 290.240938 446.890309 
L 295.200938 446.710826 
L 305.120938 446.018142 
L 315.040938 444.891026 
L 324.960938 443.34549 
L 334.880938 441.401773 
L 344.800938 439.084909 
L 354.720937 436.425531 
L 364.640938 433.461057 
L 374.560938 430.237463 
L 389.440938 425.045622 
L 414.240938 416.180017 
L 424.160938 412.975464 
L 429.120938 411.564395 
L 434.080938 410.344318 
L 439.040938 409.381255 
L 444.000938 408.76391 
L 448.960938 408.614976 
L 453.920938 409.109974 
L 458.880938 410.51023 
L 463.840937 413.224126 
L 468.800938 417.929603 
L 473.760938 425.843667 
L 478.720938 439.396179 
L 493.600938 367.451602 
L 503.520938 313.872843 
L 508.480938 287.885707 
L 513.440938 264.495308 
L 518.400938 241.907154 
L 528.320938 191.516259 
L 533.280938 168.336977 
L 538.240937 148.24 
L 543.200938 131.668675 
L 553.120938 113.050861 
L 558.080938 120.209066 
L 563.040938 129.626221 
L 568.000937 144.61686 
L 572.960938 159.079707 
L 577.920938 165.183701 
L 582.880938 170.332271 
L 587.840937 174.698474 
L 592.800938 178.419572 
L 597.760938 181.605954 
L 602.720937 184.347511 
L 607.680938 186.718268 
L 612.640938 188.779808 
L 617.600937 190.58384 
L 622.560938 192.17415 
L 627.520938 193.588099 
L 632.480937 194.85779 
L 642.400938 197.071817 
L 652.320938 198.998251 
L 692.000937 206.216544 
L 701.920938 208.297396 
L 711.840937 210.594858 
L 721.760937 213.143313 
L 731.680938 215.96927 
L 741.600937 219.092479 
L 751.520938 222.52679 
L 761.440938 226.280833 
L 771.360938 230.358565 
L 781.280937 234.759717 
L 791.200938 239.480173 
L 801.120938 244.512293 
L 811.040938 249.845194 
L 820.960938 255.465011 
L 830.880938 261.355124 
L 840.800938 267.496383 
L 850.720937 273.867312 
L 860.640938 280.444307 
L 875.520937 290.639835 
L 890.400938 301.147812 
L 910.240937 315.469456 
L 949.920938 344.218288 
L 953.160937 346.538373 
L 953.160937 346.538373 
" clip-path="url(#p484e5923d8)" style="fill: none; stroke: #2ca02c; stroke-width: 1.5; stroke-linecap: square"/>
   </g>
   <g id="line2d_42">
    <path d="M -1 303.428453 
L 12.480938 312.576296 
L 27.360938 322.968431 
L 52.160938 340.662222 
L 86.880938 365.457604 
L 101.760938 375.808633 
L 116.640938 385.832637 
L 126.560938 392.280898 
L 136.480938 398.506318 
L 146.400937 404.480076 
L 156.320938 410.174807 
L 166.240938 415.564753 
L 176.160938 420.625911 
L 186.080938 425.336173 
L 196.000938 429.675467 
L 205.920938 433.625888 
L 215.840938 437.171833 
L 225.760938 440.30013 
L 235.680938 443.000166 
L 245.600938 445.264023 
L 255.520938 447.086616 
L 265.440938 448.465841 
L 275.360938 449.402744 
L 285.280938 449.901714 
L 295.200938 449.970722 
L 305.120938 449.621606 
L 315.040938 448.870458 
L 324.960938 447.73812 
L 334.880938 446.25087 
L 344.800938 444.441379 
L 354.720937 442.350064 
L 364.640938 440.027071 
L 379.520938 436.250162 
L 399.360938 431.154946 
L 409.280938 428.893298 
L 414.240938 427.924776 
L 419.200938 427.114405 
L 424.160938 426.511083 
L 429.120938 426.176739 
L 434.080938 426.191303 
L 439.040938 426.660179 
L 444.000938 427.725778 
L 448.960938 429.585994 
L 453.920938 432.524977 
L 458.880938 436.967014 
L 463.840937 443.576577 
L 468.800938 453.458436 
L 473.760938 468.597914 
L 478.720938 442.33638 
L 498.560938 340.662222 
L 503.520938 313.077506 
L 508.480938 286.218405 
L 518.400938 238.966723 
L 523.360937 212.705189 
L 528.320938 187.16927 
L 533.280938 163.916908 
L 538.240937 145.615808 
L 543.200938 131.49767 
L 553.120938 129.853088 
L 558.080938 143.116284 
L 572.960938 184.357103 
L 577.920938 188.690106 
L 582.880938 192.265284 
L 587.840937 195.222913 
L 592.800938 197.674381 
L 597.760938 199.709388 
L 602.720937 201.401082 
L 607.680938 202.809797 
L 612.640938 203.985814 
L 617.600937 204.971429 
L 622.560938 205.802528 
L 632.480937 207.119641 
L 642.400938 208.135718 
L 682.080938 211.740059 
L 692.000937 212.945914 
L 701.920938 214.38516 
L 711.840937 216.094224 
L 721.760937 218.101535 
L 731.680938 220.428709 
L 741.600937 223.091439 
L 751.520938 226.100194 
L 761.440938 229.46077 
L 771.360938 233.174736 
L 781.280937 237.239805 
L 791.200938 241.650145 
L 801.120938 246.396654 
L 811.040938 251.467205 
L 820.960938 256.846864 
L 830.880938 262.5181 
L 840.800938 268.460984 
L 850.720937 274.65337 
L 860.640938 281.071087 
L 870.560938 287.688117 
L 885.440938 297.926399 
L 900.320938 308.450958 
L 925.120938 326.338689 
L 953.160937 346.538373 
L 953.160937 346.538373 
" clip-path="url(#p484e5923d8)" style="fill: none; stroke: #d62728; stroke-width: 1.5; stroke-linecap: square"/>
   </g>
   <g id="line2d_43">
    <path d="M -1 303.428453 
L 12.480938 312.576296 
L 27.360938 322.968431 
L 52.160938 340.662222 
L 86.880938 365.46273 
L 101.760938 375.819122 
L 116.640938 385.850428 
L 126.560938 392.304655 
L 136.480938 398.536939 
L 146.400937 404.518478 
L 156.320938 410.221932 
L 166.240938 415.621569 
L 176.160938 420.69342 
L 186.080938 425.415415 
L 196.000938 429.767525 
L 205.920938 433.7319 
L 215.840938 437.292995 
L 225.760938 440.437711 
L 235.680938 443.155518 
L 245.600938 445.438598 
L 255.520938 447.281981 
L 265.440938 448.683702 
L 275.360938 449.644972 
L 285.280938 450.17038 
L 295.200938 450.268133 
L 305.120938 449.950362 
L 315.040938 449.233515 
L 324.960938 448.138874 
L 334.880938 446.69327 
L 344.800938 444.930068 
L 354.720937 442.890579 
L 364.640938 440.626111 
L 379.520938 436.953053 
L 399.360938 432.03937 
L 409.280938 429.895998 
L 414.240938 428.996291 
L 419.200938 428.262786 
L 424.160938 427.745984 
L 429.120938 427.509873 
L 434.080938 427.637078 
L 439.040938 428.236594 
L 444.000938 429.455735 
L 448.960938 431.499252 
L 453.920938 434.661208 
L 458.880938 439.380757 
L 463.840937 446.345735 
L 468.800938 456.699853 
L 473.760938 472.498531 
L 478.720938 445.408223 
L 483.680938 420.512876 
L 498.560938 340.662222 
L 503.520938 312.108608 
L 508.480938 284.523359 
L 513.440938 260.811569 
L 518.400938 235.916221 
L 523.360937 208.804395 
L 528.320938 183.02676 
L 533.280938 161.187141 
L 543.200938 134.529602 
L 553.120938 147.531975 
L 558.080938 163.221867 
L 563.040938 178.373778 
L 568.000937 192.471247 
L 572.960938 198.714203 
L 577.920938 202.041315 
L 582.880938 204.722836 
L 587.840937 206.88042 
L 592.800938 208.610762 
L 597.760938 209.991808 
L 602.720937 211.087199 
L 607.680938 211.949492 
L 612.640938 212.622548 
L 617.600937 213.143318 
L 627.520938 213.849078 
L 637.440938 214.268536 
L 672.160938 215.380819 
L 682.080938 215.961003 
L 692.000937 216.768073 
L 701.920938 217.842899 
L 711.840937 219.217763 
L 721.760937 220.917715 
L 731.680938 222.961589 
L 741.600937 225.362775 
L 751.520938 228.129821 
L 761.440938 231.266916 
L 771.360938 234.774271 
L 781.280937 238.64845 
L 791.200938 242.88265 
L 801.120938 247.466937 
L 811.040938 252.388477 
L 820.960938 257.631731 
L 830.880938 263.17865 
L 840.800938 269.00886 
L 850.720937 275.099837 
L 860.640938 281.427087 
L 870.560938 287.964318 
L 885.440938 298.102405 
L 900.320938 308.549636 
L 920.160938 322.775944 
L 953.160937 346.538373 
L 953.160937 346.538373 
" clip-path="url(#p484e5923d8)" style="fill: none; stroke: #9467bd; stroke-width: 1.5; stroke-linecap: square"/>
   </g>
   <g id="line2d_44">
    <path d="M -1 303.428453 
L 12.480938 312.576296 
L 27.360938 322.968431 
L 52.160938 340.662222 
L 86.880938 365.467477 
L 101.760938 375.828835 
L 116.640938 385.866903 
L 126.560938 392.326654 
L 136.480938 398.565295 
L 146.400937 404.55404 
L 156.320938 410.265571 
L 166.240938 415.674183 
L 176.160938 420.755936 
L 186.080938 425.488795 
L 196.000938 429.852775 
L 205.920938 433.83007 
L 215.840938 437.405196 
L 225.760938 440.565116 
L 235.680938 443.29938 
L 245.600938 445.600261 
L 255.520938 447.462896 
L 265.440938 448.885449 
L 275.360938 449.869285 
L 285.280938 450.419174 
L 295.200938 450.543546 
L 305.120938 450.254802 
L 315.040938 449.569719 
L 324.960938 448.509987 
L 334.880938 447.102948 
L 344.800938 445.382611 
L 354.720937 443.391115 
L 364.640938 441.180843 
L 379.520938 437.603954 
L 394.400938 433.994206 
L 404.320938 431.792468 
L 409.280938 430.824534 
L 414.240938 429.988551 
L 419.200938 429.326227 
L 424.160938 428.889546 
L 429.120938 428.744402 
L 434.080938 428.975916 
L 439.040938 429.69641 
L 444.000938 431.057735 
L 448.960938 433.270996 
L 453.920938 436.639433 
L 458.880938 441.615968 
L 463.840937 448.910073 
L 468.800938 459.70152 
L 473.760938 476.110639 
L 478.720938 448.297714 
L 483.680938 422.368682 
L 498.560938 340.662222 
L 503.520938 311.225251 
L 508.480938 282.849324 
L 513.440938 258.934109 
L 518.400938 233.026731 
L 523.360937 205.170498 
L 528.320938 179.566275 
L 533.280938 159.159 
L 538.240937 145.269561 
L 543.200938 141.016128 
L 553.120938 162.543284 
L 558.080938 178.774484 
L 563.040938 193.94464 
L 568.000937 202.878459 
L 572.960938 205.359403 
L 577.920938 208.220938 
L 582.880938 210.488828 
L 587.840937 212.276111 
L 592.800938 213.672678 
L 597.760938 214.751038 
L 602.720937 215.570429 
L 607.680938 216.17981 
L 612.640938 216.62007 
L 622.560938 217.125976 
L 632.480937 217.307678 
L 672.160938 217.537344 
L 682.080938 217.914672 
L 692.000937 218.537164 
L 701.920938 219.443318 
L 711.840937 220.663497 
L 721.760937 222.221187 
L 731.680938 224.133935 
L 741.600937 226.414065 
L 751.520938 229.069237 
L 761.440938 232.102892 
L 771.360938 235.514617 
L 781.280937 239.300443 
L 791.200938 243.453116 
L 801.120938 247.962319 
L 811.040938 252.814889 
L 820.960938 257.995008 
L 830.880938 263.484386 
L 840.800938 269.262444 
L 850.720937 275.306485 
L 860.640938 281.591862 
L 870.560938 288.092157 
L 885.440938 298.18387 
L 900.320938 308.595309 
L 920.160938 322.79 
L 953.160937 346.538373 
L 953.160937 346.538373 
" clip-path="url(#p484e5923d8)" style="fill: none; stroke: #8c564b; stroke-width: 1.5; stroke-linecap: square"/>
   </g>
   <g id="line2d_45">
    <path d="M -1 303.428453 
L 12.480938 312.576296 
L 27.360938 322.968431 
L 52.160938 340.662222 
L 86.880938 365.471592 
L 101.760938 375.837256 
L 116.640938 385.881186 
L 126.560938 392.345728 
L 136.480938 398.589879 
L 146.400937 404.584872 
L 156.320938 410.303406 
L 166.240938 415.719799 
L 176.160938 420.810137 
L 186.080938 425.552416 
L 196.000938 429.926686 
L 205.920938 433.915184 
L 215.840938 437.502473 
L 225.760938 440.675575 
L 235.680938 443.424108 
L 245.600938 445.740422 
L 255.520938 447.619749 
L 265.440938 449.060364 
L 275.360938 450.063763 
L 285.280938 450.634878 
L 295.200938 450.782329 
L 305.120938 450.518751 
L 315.040938 449.861206 
L 324.960938 448.831741 
L 334.880938 447.458137 
L 344.800938 445.774965 
L 354.720937 443.825079 
L 364.640938 441.661794 
L 379.520938 438.168284 
L 394.400938 434.663104 
L 404.320938 432.547707 
L 409.280938 431.629572 
L 414.240938 430.848838 
L 419.200938 430.248228 
L 424.160938 429.881011 
L 429.120938 429.814735 
L 434.080938 430.136685 
L 439.040938 430.962066 
L 444.000938 432.446664 
L 448.960938 434.807092 
L 453.920938 438.354549 
L 458.880938 443.55389 
L 463.840937 451.133346 
L 468.800938 462.303956 
L 473.760938 479.242325 
L 478.720938 450.838921 
L 483.680938 424.132223 
L 488.640938 399.992338 
L 493.600938 370.914602 
L 503.520938 310.38809 
L 508.480938 281.332106 
L 513.440938 257.192221 
L 518.400938 230.463771 
L 523.360937 202.060366 
L 528.320938 177.224396 
L 533.280938 158.305147 
L 538.240937 147.608398 
L 543.200938 148.310037 
L 548.160938 160.910374 
L 553.120938 176.099277 
L 563.040938 203.670991 
L 568.000937 207.8313 
L 572.960938 208.032628 
L 577.920938 210.706871 
L 582.880938 212.808366 
L 587.840937 214.446684 
L 592.800938 215.708981 
L 597.760938 216.665577 
L 602.720937 217.373939 
L 607.680938 217.881579 
L 612.640938 218.22819 
L 622.560938 218.567253 
L 632.480937 218.604437 
L 667.200938 218.337399 
L 677.120938 218.523864 
L 687.040938 218.940598 
L 696.960938 219.629705 
L 706.880938 220.624578 
L 716.800938 221.951311 
L 726.720937 223.629747 
L 736.640938 225.674274 
L 746.560938 228.094429 
L 756.480937 230.895388 
L 766.400938 234.078346 
L 776.320938 237.640847 
L 786.240937 241.577051 
L 796.160938 245.877978 
L 806.080938 250.531721 
L 816.000937 255.523643 
L 825.920938 260.836563 
L 835.840937 266.450936 
L 845.760937 272.345026 
L 855.680938 278.495074 
L 865.600938 284.875472 
L 875.520937 291.458928 
L 890.400938 301.651473 
L 905.280937 312.133101 
L 930.080938 329.9492 
L 953.160937 346.538373 
L 953.160937 346.538373 
" clip-path="url(#p484e5923d8)" style="fill: none; stroke: #e377c2; stroke-width: 1.5; stroke-linecap: square"/>
   </g>
   <g id="line2d_46">
    <path d="M -1 303.428453 
L 12.480938 312.576296 
L 27.360938 322.968431 
L 52.160938 340.662222 
L 86.880938 365.474655 
L 101.760938 375.843523 
L 116.640938 385.891816 
L 126.560938 392.359923 
L 136.480938 398.608175 
L 146.400937 404.607817 
L 156.320938 410.331563 
L 166.240938 415.753747 
L 176.160938 420.850474 
L 186.080938 425.599764 
L 196.000938 429.981692 
L 205.920938 433.978527 
L 215.840938 437.574869 
L 225.760938 440.757782 
L 235.680938 443.516933 
L 245.600938 445.844732 
L 255.520938 447.736481 
L 265.440938 449.190538 
L 275.360938 450.208497 
L 285.280938 450.795408 
L 295.200938 450.960036 
L 305.120938 450.715186 
L 315.040938 450.078137 
L 324.960938 449.071196 
L 334.880938 447.722476 
L 344.800938 446.066962 
L 354.720937 444.148043 
L 364.640938 442.019727 
L 384.480938 437.425692 
L 394.400938 435.160911 
L 404.320938 433.10977 
L 409.280938 432.228696 
L 414.240938 431.489079 
L 419.200938 430.934398 
L 424.160938 430.618877 
L 429.120938 430.611297 
L 434.080938 431.000551 
L 439.040938 431.903992 
L 444.000938 433.480332 
L 448.960938 435.950285 
L 453.920938 439.63097 
L 458.880938 444.996127 
L 463.840937 452.787948 
L 468.800938 464.240738 
L 473.760938 481.572986 
L 483.680938 425.623262 
L 488.640938 401.128701 
L 493.600938 371.615524 
L 503.520938 309.70892 
L 508.480938 280.195743 
L 513.440938 255.701183 
L 523.360937 199.707818 
L 528.320938 176.107881 
L 533.280938 158.312082 
L 538.240937 150.488056 
L 543.200938 154.68689 
L 548.160938 169.337539 
L 553.120938 185.537413 
L 558.080938 198.595196 
L 563.040938 209.03457 
L 568.000937 210.418615 
L 572.960938 209.162431 
L 577.920938 211.757517 
L 582.880938 213.788688 
L 587.840937 215.364048 
L 592.800938 216.569597 
L 597.760938 217.474731 
L 602.720937 218.136169 
L 607.680938 218.600809 
L 612.640938 218.90784 
L 622.560938 219.176389 
L 632.480937 219.152495 
L 667.200938 218.722609 
L 677.120938 218.87285 
L 687.040938 219.256705 
L 696.960938 219.915827 
L 706.880938 220.883249 
L 716.800938 222.184768 
L 726.720937 223.839989 
L 736.640938 225.863099 
L 746.560938 228.26347 
L 756.480937 231.04614 
L 766.400938 234.212188 
L 776.320938 237.759059 
L 786.240937 241.68083 
L 796.160938 245.968452 
L 806.080938 250.609955 
L 816.000937 255.590652 
L 825.920938 260.893318 
L 835.840937 266.498371 
L 845.760937 272.384041 
L 855.680938 278.526542 
L 865.600938 284.900243 
L 875.520937 291.477832 
L 890.400938 301.663097 
L 905.280937 312.139231 
L 930.080938 329.950059 
L 953.160937 346.538373 
L 953.160937 346.538373 
" clip-path="url(#p484e5923d8)" style="fill: none; stroke: #7f7f7f; stroke-width: 1.5; stroke-linecap: square"/>
   </g>
   <g id="line2d_47">
    <path d="M -1 303.428453 
L 12.480938 312.576296 
L 27.360938 322.968431 
L 52.160938 340.662222 
L 86.880938 365.476534 
L 101.760938 375.847368 
L 116.640938 385.898337 
L 126.560938 392.36863 
L 136.480938 398.619398 
L 146.400937 404.621892 
L 156.320938 410.348835 
L 166.240938 415.774571 
L 176.160938 420.875217 
L 186.080938 425.628807 
L 196.000938 430.015433 
L 205.920938 434.017382 
L 215.840938 437.619277 
L 225.760938 440.808207 
L 235.680938 443.573872 
L 245.600938 445.908717 
L 255.520938 447.808086 
L 265.440938 449.270388 
L 275.360938 450.297278 
L 285.280938 450.893879 
L 295.200938 451.069042 
L 305.120938 450.835681 
L 315.040938 450.211203 
L 324.960938 449.218079 
L 334.880938 447.884622 
L 344.800938 446.246075 
L 354.720937 444.346151 
L 364.640938 442.239285 
L 384.480938 437.697968 
L 394.400938 435.466269 
L 404.320938 433.454542 
L 409.280938 432.596202 
L 414.240938 431.881807 
L 419.200938 431.355298 
L 424.160938 431.071489 
L 429.120938 431.099913 
L 434.080938 431.530451 
L 439.040938 432.481774 
L 444.000938 434.11439 
L 448.960938 436.651526 
L 453.920938 440.413934 
L 458.880938 445.880804 
L 463.840937 453.80289 
L 468.800938 465.428771 
L 473.760938 483.002627 
L 478.720938 454.132334 
L 483.680938 426.464305 
L 488.640938 401.900303 
L 493.600938 372.068199 
L 503.520938 309.256246 
L 508.480938 279.446001 
L 513.440938 254.83828 
L 518.400938 227.192111 
L 523.360937 198.278099 
L 528.320938 175.222392 
L 533.280938 158.593331 
L 538.240937 152.65349 
L 543.200938 158.954882 
L 548.160938 174.655791 
L 553.120938 191.078058 
L 558.080938 203.259613 
L 563.040938 211.746939 
L 568.000937 211.665402 
L 572.960938 214.535091 
L 577.920938 216.753756 
L 582.880938 218.450505 
L 587.840937 219.726476 
L 592.800938 220.662168 
L 597.760938 221.32258 
L 602.720937 221.760871 
L 607.680938 222.021031 
L 617.600937 222.148376 
L 627.520938 221.936646 
L 667.200938 220.554438 
L 677.120938 220.532417 
L 687.040938 220.759917 
L 696.960938 221.276452 
L 706.880938 222.113331 
L 716.800938 223.294952 
L 726.720937 224.839774 
L 736.640938 226.761037 
L 746.560938 229.067328 
L 756.480937 231.763025 
L 766.400938 234.848658 
L 776.320938 238.321202 
L 786.240937 242.174341 
L 796.160938 246.398688 
L 806.080938 250.981988 
L 816.000937 255.909308 
L 825.920938 261.163213 
L 835.840937 266.723942 
L 845.760937 272.569572 
L 855.680938 278.676185 
L 865.600938 285.018039 
L 875.520937 291.567729 
L 890.400938 301.718375 
L 905.280937 312.168382 
L 930.080938 329.954147 
L 953.160937 346.538373 
L 953.160937 346.538373 
" clip-path="url(#p484e5923d8)" style="fill: none; stroke: #bcbd22; stroke-width: 1.5; stroke-linecap: square"/>
   </g>
   <g id="line2d_48">
    <path d="M -1 303.428453 
L 12.480938 312.576296 
L 27.360938 322.968431 
L 52.160938 340.662222 
L 86.880938 365.477161 
L 101.760938 375.848651 
L 116.640938 385.900514 
L 126.560938 392.371538 
L 136.480938 398.623146 
L 146.400937 404.626592 
L 156.320938 410.354602 
L 166.240938 415.781524 
L 176.160938 420.883479 
L 186.080938 425.638505 
L 196.000938 430.026699 
L 205.920938 434.030356 
L 215.840938 437.634105 
L 225.760938 440.825045 
L 235.680938 443.592885 
L 245.600938 445.930082 
L 255.520938 447.831996 
L 265.440938 449.297051 
L 275.360938 450.326923 
L 285.280938 450.926759 
L 295.200938 451.10544 
L 305.120938 450.875916 
L 315.040938 450.255636 
L 324.960938 449.267125 
L 334.880938 447.938765 
L 344.800938 446.305882 
L 354.720937 444.412301 
L 364.640938 442.312598 
L 384.480938 437.788884 
L 394.400938 435.568231 
L 404.320938 433.569666 
L 409.280938 432.718917 
L 414.240938 432.012943 
L 419.200938 431.495842 
L 424.160938 431.222621 
L 429.120938 431.263067 
L 434.080938 431.707391 
L 439.040938 432.674702 
L 444.000938 434.326109 
L 448.960938 436.885678 
L 453.920938 440.675375 
L 458.880938 446.176208 
L 463.840937 454.141791 
L 468.800938 465.825468 
L 473.760938 483.48 
L 478.720938 454.562114 
L 483.680938 426.803457 
L 488.640938 402.150658 
L 498.560938 340.662222 
L 503.520938 309.097795 
L 508.480938 279.195658 
L 518.400938 226.740458 
L 523.360937 197.8007 
L 528.320938 174.941425 
L 533.280938 158.753184 
L 538.240937 153.435448 
L 543.200938 160.431783 
L 548.160938 176.439483 
L 553.120938 192.884627 
L 558.080938 204.692856 
L 563.040938 212.585953 
L 568.000937 212.036365 
L 572.960938 209.693253 
L 577.920938 212.251148 
L 582.880938 214.249278 
L 587.840937 215.795059 
L 592.800938 216.973946 
L 597.760938 217.854901 
L 602.720937 218.494292 
L 607.680938 218.938729 
L 612.640938 219.227165 
L 622.560938 219.462584 
L 632.480937 219.409992 
L 667.200938 218.903595 
L 677.120938 219.036817 
L 687.040938 219.405223 
L 696.960938 220.050258 
L 706.880938 221.004782 
L 716.800938 222.294455 
L 726.720937 223.938769 
L 736.640938 225.951816 
L 746.560938 228.342892 
L 756.480937 231.116969 
L 766.400938 234.275071 
L 776.320938 237.814599 
L 786.240937 241.72959 
L 796.160938 246.010959 
L 806.080938 250.646712 
L 816.000937 255.622135 
L 825.920938 260.919984 
L 835.840937 266.520658 
L 845.760937 272.402371 
L 855.680938 278.541327 
L 865.600938 284.911881 
L 875.520937 291.486714 
L 890.400938 301.668558 
L 905.280937 312.142111 
L 930.080938 329.950463 
L 953.160937 346.538373 
L 953.160937 346.538373 
" clip-path="url(#p484e5923d8)" style="fill: none; stroke: #17becf; stroke-width: 1.5; stroke-linecap: square"/>
   </g>
   <g id="patch_3">
    <path d="M 52.160938 506.16 
L 52.160938 7.2 
" style="fill: none; stroke: #000000; stroke-width: 0.8; stroke-linejoin: miter; stroke-linecap: square"/>
   </g>
   <g id="patch_4">
    <path d="M 944.960938 506.16 
L 944.960938 7.2 
" style="fill: none; stroke: #000000; stroke-width: 0.8; stroke-linejoin: miter; stroke-linecap: square"/>
   </g>
   <g id="patch_5">
    <path d="M 52.160938 506.16 
L 944.960938 506.16 
" style="fill: none; stroke: #000000; stroke-width: 0.8; stroke-linejoin: miter; stroke-linecap: square"/>
   </g>
   <g id="patch_6">
    <path d="M 52.160938 7.2 
L 944.960938 7.2 
" style="fill: none; stroke: #000000; stroke-width: 0.8; stroke-linejoin: miter; stroke-linecap: square"/>
   </g>
  </g>
 </g>
 <defs>
  <clipPath id="p484e5923d8">
   <rect x="52.160938" y="7.2" width="892.8" height="498.96"/>
  </clipPath>
 </defs>
</svg>
