<?xml version="1.0" encoding="utf-8" standalone="no"?>
<!DOCTYPE svg PUBLIC "-//W3C//DTD SVG 1.1//EN"
  "http://www.w3.org/Graphics/SVG/1.1/DTD/svg11.dtd">
<svg xmlns:xlink="http://www.w3.org/1999/xlink" width="959.690625pt" height="543.71625pt" viewBox="0 0 959.690625 543.71625" xmlns="http://www.w3.org/2000/svg" version="1.1">
 <metadata>
  <rdf:RDF xmlns:dc="http://purl.org/dc/elements/1.1/" xmlns:cc="http://creativecommons.org/ns#" xmlns:rdf="http://www.w3.org/1999/02/22-rdf-syntax-ns#">
   <cc:Work>
    <dc:type rdf:resource="http://purl.org/dc/dcmitype/StillImage"/>
    <dc:date>2026-05-17T22:13:20.183223</dc:date>
    <dc:format>image/svg+xml</dc:format>
    <dc:creator>
     <cc:Agent>
      <dc:title>Matplotlib v3.10.9, https://matplotlib.org/</dc:title>
     </cc:Agent>
    </dc:creator>
   </cc:Work>
  </rdf:RDF>
 </metadata>
 <defs>
  <style type="text/css">*{stroke-linejoin: round; stroke-linecap: butt}</style>
 </defs>
 <g id="figure_1">
  <g id="patch_1">
   <path d="M 0 543.71625 
L 959.690625 543.71625 
L 959.690625 0 
L 0 0 
L 0 543.71625 
z
" style="fill: none"/>
  </g>
  <g id="axes_1">
   <g id="patch_2">
    <path d="M 59.690625 506.16 
L 952.490625 506.16 
L 952.490625 7.2 
L 59.690625 7.2 
L 59.690625 506.16 
z
" style="fill: none"/>
   </g>
   <g id="matplotlib.axis_1">
    <g id="xtick_1">
     <g id="line2d_1">
      <path d="M 145.008306 506.16 
L 145.008306 7.2 
" clip-path="url(#p1d0188999b)" style="fill: none; stroke: #b0b0b0; stroke-width: 0.8; stroke-linecap: square"/>
     </g>
     <g id="line2d_2">
      <defs>
       <path id="m1dd2138b74" d="M 0 0 
L 0 3.5 
" style="stroke: #000000; stroke-width: 0.8"/>
      </defs>
      <g>
       <use xlink:href="#m1dd2138b74" x="145.008306" y="506.16" style="stroke: #000000; stroke-width: 0.8"/>
      </g>
     </g>
     <g id="text_1">
      <!-- 0.05 -->
      <g transform="translate(133.875493 520.758438) scale(0.1 -0.1)">
       <defs>
        <path id="DejaVuSans-30" d="M 2034 4250 
Q 1547 4250 1301 3770 
Q 1056 3291 1056 2328 
Q 1056 1369 1301 889 
Q 1547 409 2034 409 
Q 2525 409 2770 889 
Q 3016 1369 3016 2328 
Q 3016 3291 2770 3770 
Q 2525 4250 2034 4250 
z
M 2034 4750 
Q 2819 4750 3233 4129 
Q 3647 3509 3647 2328 
Q 3647 1150 3233 529 
Q 2819 -91 2034 -91 
Q 1250 -91 836 529 
Q 422 1150 422 2328 
Q 422 3509 836 4129 
Q 1250 4750 2034 4750 
z
" transform="scale(0.015625)"/>
        <path id="DejaVuSans-2e" d="M 684 794 
L 1344 794 
L 1344 0 
L 684 0 
L 684 794 
z
" transform="scale(0.015625)"/>
        <path id="DejaVuSans-35" d="M 691 4666 
L 3169 4666 
L 3169 4134 
L 1269 4134 
L 1269 2991 
Q 1406 3038 1543 3061 
Q 1681 3084 1819 3084 
Q 2600 3084 3056 2656 
Q 3513 2228 3513 1497 
Q 3513 744 3044 326 
Q 2575 -91 1722 -91 
Q 1428 -91 1123 -41 
Q 819 9 494 109 
L 494 744 
Q 775 591 1075 516 
Q 1375 441 1709 441 
Q 2250 441 2565 725 
Q 2881 1009 2881 1497 
Q 2881 1984 2565 2268 
Q 2250 2553 1709 2553 
Q 1456 2553 1204 2497 
Q 953 2441 691 2322 
L 691 4666 
z
" transform="scale(0.015625)"/>
       </defs>
       <use xlink:href="#DejaVuSans-30"/>
       <use xlink:href="#DejaVuSans-2e" transform="translate(63.623047 0)"/>
       <use xlink:href="#DejaVuSans-30" transform="translate(95.410156 0)"/>
       <use xlink:href="#DejaVuSans-35" transform="translate(159.033203 0)"/>
      </g>
     </g>
    </g>
    <g id="xtick_2">
     <g id="line2d_3">
      <path d="M 332.974115 506.16 
L 332.974115 7.2 
" clip-path="url(#p1d0188999b)" style="fill: none; stroke: #b0b0b0; stroke-width: 0.8; stroke-linecap: square"/>
     </g>
     <g id="line2d_4">
      <g>
       <use xlink:href="#m1dd2138b74" x="332.974115" y="506.16" style="stroke: #000000; stroke-width: 0.8"/>
      </g>
     </g>
     <g id="text_2">
      <!-- 0.10 -->
      <g transform="translate(321.841302 520.758438) scale(0.1 -0.1)">
       <defs>
        <path id="DejaVuSans-31" d="M 794 531 
L 1825 531 
L 1825 4091 
L 703 3866 
L 703 4441 
L 1819 4666 
L 2450 4666 
L 2450 531 
L 3481 531 
L 3481 0 
L 794 0 
L 794 531 
z
" transform="scale(0.015625)"/>
       </defs>
       <use xlink:href="#DejaVuSans-30"/>
       <use xlink:href="#DejaVuSans-2e" transform="translate(63.623047 0)"/>
       <use xlink:href="#DejaVuSans-31" transform="translate(95.410156 0)"/>
       <use xlink:href="#DejaVuSans-30" transform="translate(159.033203 0)"/>
      </g>
     </g>
    </g>
    <g id="xtick_3">
     <g id="line2d_5">
      <path d="M 520.939924 506.16 
L 520.939924 7.2 
" clip-path="url(#p1d0188999b)" style="fill: none; stroke: #b0b0b0; stroke-width: 0.8; stroke-linecap: square"/>
     </g>
     <g id="line2d_6">
      <g>
       <use xlink:href="#m1dd2138b74" x="520.939924" y="506.16" style="stroke: #000000; stroke-width: 0.8"/>
      </g>
     </g>
     <g id="text_3">
      <!-- 0.15 -->
      <g transform="translate(509.807111 520.758438) scale(0.1 -0.1)">
       <use xlink:href="#DejaVuSans-30"/>
       <use xlink:href="#DejaVuSans-2e" transform="translate(63.623047 0)"/>
       <use xlink:href="#DejaVuSans-31" transform="translate(95.410156 0)"/>
       <use xlink:href="#DejaVuSans-35" transform="translate(159.033203 0)"/>
      </g>
     </g>
    </g>
    <g id="xtick_4">
     <g id="line2d_7">
      <path d="M 708.905733 506.16 
L 708.905733 7.2 
" clip-path="url(#p1d0188999b)" style="fill: none; stroke: #b0b0b0; stroke-width: 0.8; stroke-linecap: square"/>
     </g>
     <g id="line2d_8">
      <g>
       <use xlink:href="#m1dd2138b74" x="708.905733" y="506.16" style="stroke: #000000; stroke-width: 0.8"/>
      </g>
     </g>
     <g id="text_4">
      <!-- 0.20 -->
      <g transform="translate(697.772921 520.758438) scale(0.1 -0.1)">
       <defs>
        <path id="DejaVuSans-32" d="M 1228 531 
L 3431 531 
L 3431 0 
L 469 0 
L 469 531 
Q 828 903 1448 1529 
Q 2069 2156 2228 2338 
Q 2531 2678 2651 2914 
Q 2772 3150 2772 3378 
Q 2772 3750 2511 3984 
Q 2250 4219 1831 4219 
Q 1534 4219 1204 4116 
Q 875 4013 500 3803 
L 500 4441 
Q 881 4594 1212 4672 
Q 1544 4750 1819 4750 
Q 2544 4750 2975 4387 
Q 3406 4025 3406 3419 
Q 3406 3131 3298 2873 
Q 3191 2616 2906 2266 
Q 2828 2175 2409 1742 
Q 1991 1309 1228 531 
z
" transform="scale(0.015625)"/>
       </defs>
       <use xlink:href="#DejaVuSans-30"/>
       <use xlink:href="#DejaVuSans-2e" transform="translate(63.623047 0)"/>
       <use xlink:href="#DejaVuSans-32" transform="translate(95.410156 0)"/>
       <use xlink:href="#DejaVuSans-30" transform="translate(159.033203 0)"/>
      </g>
     </g>
    </g>
    <g id="xtick_5">
     <g id="line2d_9">
      <path d="M 896.871542 506.16 
L 896.871542 7.2 
" clip-path="url(#p1d0188999b)" style="fill: none; stroke: #b0b0b0; stroke-width: 0.8; stroke-linecap: square"/>
     </g>
     <g id="line2d_10">
      <g>
       <use xlink:href="#m1dd2138b74" x="896.871542" y="506.16" style="stroke: #000000; stroke-width: 0.8"/>
      </g>
     </g>
     <g id="text_5">
      <!-- 0.25 -->
      <g transform="translate(885.73873 520.758438) scale(0.1 -0.1)">
       <use xlink:href="#DejaVuSans-30"/>
       <use xlink:href="#DejaVuSans-2e" transform="translate(63.623047 0)"/>
       <use xlink:href="#DejaVuSans-32" transform="translate(95.410156 0)"/>
       <use xlink:href="#DejaVuSans-35" transform="translate(159.033203 0)"/>
      </g>
     </g>
    </g>
    <g id="text_6">
     <!-- $r$ (m) -->
     <g transform="translate(493.640625 534.436563) scale(0.1 -0.1)">
      <defs>
       <path id="DejaVuSans-Oblique-72" d="M 2853 2969 
Q 2766 3016 2653 3041 
Q 2541 3066 2413 3066 
Q 1953 3066 1609 2717 
Q 1266 2369 1153 1784 
L 800 0 
L 225 0 
L 909 3500 
L 1484 3500 
L 1375 2956 
Q 1603 3259 1920 3421 
Q 2238 3584 2597 3584 
Q 2691 3584 2781 3573 
Q 2872 3563 2963 3538 
L 2853 2969 
z
" transform="scale(0.015625)"/>
       <path id="DejaVuSans-20" transform="scale(0.015625)"/>
       <path id="DejaVuSans-28" d="M 1984 4856 
Q 1566 4138 1362 3434 
Q 1159 2731 1159 2009 
Q 1159 1288 1364 580 
Q 1569 -128 1984 -844 
L 1484 -844 
Q 1016 -109 783 600 
Q 550 1309 550 2009 
Q 550 2706 781 3412 
Q 1013 4119 1484 4856 
L 1984 4856 
z
" transform="scale(0.015625)"/>
       <path id="DejaVuSans-6d" d="M 3328 2828 
Q 3544 3216 3844 3400 
Q 4144 3584 4550 3584 
Q 5097 3584 5394 3201 
Q 5691 2819 5691 2113 
L 5691 0 
L 5113 0 
L 5113 2094 
Q 5113 2597 4934 2840 
Q 4756 3084 4391 3084 
Q 3944 3084 3684 2787 
Q 3425 2491 3425 1978 
L 3425 0 
L 2847 0 
L 2847 2094 
Q 2847 2600 2669 2842 
Q 2491 3084 2119 3084 
Q 1678 3084 1418 2786 
Q 1159 2488 1159 1978 
L 1159 0 
L 581 0 
L 581 3500 
L 1159 3500 
L 1159 2956 
Q 1356 3278 1631 3431 
Q 1906 3584 2284 3584 
Q 2666 3584 2933 3390 
Q 3200 3197 3328 2828 
z
" transform="scale(0.015625)"/>
       <path id="DejaVuSans-29" d="M 513 4856 
L 1013 4856 
Q 1481 4119 1714 3412 
Q 1947 2706 1947 2009 
Q 1947 1309 1714 600 
Q 1481 -109 1013 -844 
L 513 -844 
Q 928 -128 1133 580 
Q 1338 1288 1338 2009 
Q 1338 2731 1133 3434 
Q 928 4138 513 4856 
z
" transform="scale(0.015625)"/>
      </defs>
      <use xlink:href="#DejaVuSans-Oblique-72" transform="translate(0 0.125)"/>
      <use xlink:href="#DejaVuSans-20" transform="translate(41.113281 0.125)"/>
      <use xlink:href="#DejaVuSans-28" transform="translate(72.900391 0.125)"/>
      <use xlink:href="#DejaVuSans-6d" transform="translate(111.914062 0.125)"/>
      <use xlink:href="#DejaVuSans-29" transform="translate(209.326172 0.125)"/>
     </g>
    </g>
   </g>
   <g id="matplotlib.axis_2">
    <g id="ytick_1">
     <g id="line2d_11">
      <path d="M 59.690625 483.48 
L 952.490625 483.48 
" clip-path="url(#p1d0188999b)" style="fill: none; stroke: #b0b0b0; stroke-width: 0.8; stroke-linecap: square"/>
     </g>
     <g id="line2d_12">
      <defs>
       <path id="me57d61f7dc" d="M 0 0 
L -3.5 0 
" style="stroke: #000000; stroke-width: 0.8"/>
      </defs>
      <g>
       <use xlink:href="#me57d61f7dc" x="59.690625" y="483.48" style="stroke: #000000; stroke-width: 0.8"/>
      </g>
     </g>
     <g id="text_7">
      <!-- 0 -->
      <g transform="translate(46.328125 487.279219) scale(0.1 -0.1)">
       <use xlink:href="#DejaVuSans-30"/>
      </g>
     </g>
    </g>
    <g id="ytick_2">
     <g id="line2d_13">
      <path d="M 59.690625 422.793534 
L 952.490625 422.793534 
" clip-path="url(#p1d0188999b)" style="fill: none; stroke: #b0b0b0; stroke-width: 0.8; stroke-linecap: square"/>
     </g>
     <g id="line2d_14">
      <g>
       <use xlink:href="#me57d61f7dc" x="59.690625" y="422.793534" style="stroke: #000000; stroke-width: 0.8"/>
      </g>
     </g>
     <g id="text_8">
      <!-- 5000 -->
      <g transform="translate(27.240625 426.592753) scale(0.1 -0.1)">
       <use xlink:href="#DejaVuSans-35"/>
       <use xlink:href="#DejaVuSans-30" transform="translate(63.623047 0)"/>
       <use xlink:href="#DejaVuSans-30" transform="translate(127.246094 0)"/>
       <use xlink:href="#DejaVuSans-30" transform="translate(190.869141 0)"/>
      </g>
     </g>
    </g>
    <g id="ytick_3">
     <g id="line2d_15">
      <path d="M 59.690625 362.107068 
L 952.490625 362.107068 
" clip-path="url(#p1d0188999b)" style="fill: none; stroke: #b0b0b0; stroke-width: 0.8; stroke-linecap: square"/>
     </g>
     <g id="line2d_16">
      <g>
       <use xlink:href="#me57d61f7dc" x="59.690625" y="362.107068" style="stroke: #000000; stroke-width: 0.8"/>
      </g>
     </g>
     <g id="text_9">
      <!-- 10000 -->
      <g transform="translate(20.878125 365.906286) scale(0.1 -0.1)">
       <use xlink:href="#DejaVuSans-31"/>
       <use xlink:href="#DejaVuSans-30" transform="translate(63.623047 0)"/>
       <use xlink:href="#DejaVuSans-30" transform="translate(127.246094 0)"/>
       <use xlink:href="#DejaVuSans-30" transform="translate(190.869141 0)"/>
       <use xlink:href="#DejaVuSans-30" transform="translate(254.492188 0)"/>
      </g>
     </g>
    </g>
    <g id="ytick_4">
     <g id="line2d_17">
      <path d="M 59.690625 301.420602 
L 952.490625 301.420602 
" clip-path="url(#p1d0188999b)" style="fill: none; stroke: #b0b0b0; stroke-width: 0.8; stroke-linecap: square"/>
     </g>
     <g id="line2d_18">
      <g>
       <use xlink:href="#me57d61f7dc" x="59.690625" y="301.420602" style="stroke: #000000; stroke-width: 0.8"/>
      </g>
     </g>
     <g id="text_10">
      <!-- 15000 -->
      <g transform="translate(20.878125 305.21982) scale(0.1 -0.1)">
       <use xlink:href="#DejaVuSans-31"/>
       <use xlink:href="#DejaVuSans-35" transform="translate(63.623047 0)"/>
       <use xlink:href="#DejaVuSans-30" transform="translate(127.246094 0)"/>
       <use xlink:href="#DejaVuSans-30" transform="translate(190.869141 0)"/>
       <use xlink:href="#DejaVuSans-30" transform="translate(254.492188 0)"/>
      </g>
     </g>
    </g>
    <g id="ytick_5">
     <g id="line2d_19">
      <path d="M 59.690625 240.734135 
L 952.490625 240.734135 
" clip-path="url(#p1d0188999b)" style="fill: none; stroke: #b0b0b0; stroke-width: 0.8; stroke-linecap: square"/>
     </g>
     <g id="line2d_20">
      <g>
       <use xlink:href="#me57d61f7dc" x="59.690625" y="240.734135" style="stroke: #000000; stroke-width: 0.8"/>
      </g>
     </g>
     <g id="text_11">
      <!-- 20000 -->
      <g transform="translate(20.878125 244.533354) scale(0.1 -0.1)">
       <use xlink:href="#DejaVuSans-32"/>
       <use xlink:href="#DejaVuSans-30" transform="translate(63.623047 0)"/>
       <use xlink:href="#DejaVuSans-30" transform="translate(127.246094 0)"/>
       <use xlink:href="#DejaVuSans-30" transform="translate(190.869141 0)"/>
       <use xlink:href="#DejaVuSans-30" transform="translate(254.492188 0)"/>
      </g>
     </g>
    </g>
    <g id="ytick_6">
     <g id="line2d_21">
      <path d="M 59.690625 180.047669 
L 952.490625 180.047669 
" clip-path="url(#p1d0188999b)" style="fill: none; stroke: #b0b0b0; stroke-width: 0.8; stroke-linecap: square"/>
     </g>
     <g id="line2d_22">
      <g>
       <use xlink:href="#me57d61f7dc" x="59.690625" y="180.047669" style="stroke: #000000; stroke-width: 0.8"/>
      </g>
     </g>
     <g id="text_12">
      <!-- 25000 -->
      <g transform="translate(20.878125 183.846888) scale(0.1 -0.1)">
       <use xlink:href="#DejaVuSans-32"/>
       <use xlink:href="#DejaVuSans-35" transform="translate(63.623047 0)"/>
       <use xlink:href="#DejaVuSans-30" transform="translate(127.246094 0)"/>
       <use xlink:href="#DejaVuSans-30" transform="translate(190.869141 0)"/>
       <use xlink:href="#DejaVuSans-30" transform="translate(254.492188 0)"/>
      </g>
     </g>
    </g>
    <g id="ytick_7">
     <g id="line2d_23">
      <path d="M 59.690625 119.361203 
L 952.490625 119.361203 
" clip-path="url(#p1d0188999b)" style="fill: none; stroke: #b0b0b0; stroke-width: 0.8; stroke-linecap: square"/>
     </g>
     <g id="line2d_24">
      <g>
       <use xlink:href="#me57d61f7dc" x="59.690625" y="119.361203" style="stroke: #000000; stroke-width: 0.8"/>
      </g>
     </g>
     <g id="text_13">
      <!-- 30000 -->
      <g transform="translate(20.878125 123.160422) scale(0.1 -0.1)">
       <defs>
        <path id="DejaVuSans-33" d="M 2597 2516 
Q 3050 2419 3304 2112 
Q 3559 1806 3559 1356 
Q 3559 666 3084 287 
Q 2609 -91 1734 -91 
Q 1441 -91 1130 -33 
Q 819 25 488 141 
L 488 750 
Q 750 597 1062 519 
Q 1375 441 1716 441 
Q 2309 441 2620 675 
Q 2931 909 2931 1356 
Q 2931 1769 2642 2001 
Q 2353 2234 1838 2234 
L 1294 2234 
L 1294 2753 
L 1863 2753 
Q 2328 2753 2575 2939 
Q 2822 3125 2822 3475 
Q 2822 3834 2567 4026 
Q 2313 4219 1838 4219 
Q 1578 4219 1281 4162 
Q 984 4106 628 3988 
L 628 4550 
Q 988 4650 1302 4700 
Q 1616 4750 1894 4750 
Q 2613 4750 3031 4423 
Q 3450 4097 3450 3541 
Q 3450 3153 3228 2886 
Q 3006 2619 2597 2516 
z
" transform="scale(0.015625)"/>
       </defs>
       <use xlink:href="#DejaVuSans-33"/>
       <use xlink:href="#DejaVuSans-30" transform="translate(63.623047 0)"/>
       <use xlink:href="#DejaVuSans-30" transform="translate(127.246094 0)"/>
       <use xlink:href="#DejaVuSans-30" transform="translate(190.869141 0)"/>
       <use xlink:href="#DejaVuSans-30" transform="translate(254.492188 0)"/>
      </g>
     </g>
    </g>
    <g id="ytick_8">
     <g id="line2d_25">
      <path d="M 59.690625 58.674737 
L 952.490625 58.674737 
" clip-path="url(#p1d0188999b)" style="fill: none; stroke: #b0b0b0; stroke-width: 0.8; stroke-linecap: square"/>
     </g>
     <g id="line2d_26">
      <g>
       <use xlink:href="#me57d61f7dc" x="59.690625" y="58.674737" style="stroke: #000000; stroke-width: 0.8"/>
      </g>
     </g>
     <g id="text_14">
      <!-- 35000 -->
      <g transform="translate(20.878125 62.473956) scale(0.1 -0.1)">
       <use xlink:href="#DejaVuSans-33"/>
       <use xlink:href="#DejaVuSans-35" transform="translate(63.623047 0)"/>
       <use xlink:href="#DejaVuSans-30" transform="translate(127.246094 0)"/>
       <use xlink:href="#DejaVuSans-30" transform="translate(190.869141 0)"/>
       <use xlink:href="#DejaVuSans-30" transform="translate(254.492188 0)"/>
      </g>
     </g>
    </g>
    <g id="text_15">
     <!-- $shear stress$ (N/m^2) -->
     <g transform="translate(14.798438 308.73) rotate(-90) scale(0.1 -0.1)">
      <defs>
       <path id="DejaVuSans-Oblique-73" d="M 3200 3397 
L 3091 2853 
Q 2863 2978 2609 3040 
Q 2356 3103 2088 3103 
Q 1634 3103 1373 2948 
Q 1113 2794 1113 2528 
Q 1113 2219 1719 2053 
Q 1766 2041 1788 2034 
L 1972 1978 
Q 2547 1819 2739 1644 
Q 2931 1469 2931 1166 
Q 2931 609 2489 259 
Q 2047 -91 1331 -91 
Q 1053 -91 747 -37 
Q 441 16 72 128 
L 184 722 
Q 500 559 806 475 
Q 1113 391 1394 391 
Q 1816 391 2080 572 
Q 2344 753 2344 1031 
Q 2344 1331 1650 1516 
L 1591 1531 
L 1394 1581 
Q 956 1697 753 1886 
Q 550 2075 550 2369 
Q 550 2928 970 3256 
Q 1391 3584 2113 3584 
Q 2397 3584 2667 3537 
Q 2938 3491 3200 3397 
z
" transform="scale(0.015625)"/>
       <path id="DejaVuSans-Oblique-68" d="M 3566 2113 
L 3156 0 
L 2578 0 
L 2988 2091 
Q 3016 2238 3031 2350 
Q 3047 2463 3047 2528 
Q 3047 2791 2881 2937 
Q 2716 3084 2419 3084 
Q 1956 3084 1617 2771 
Q 1278 2459 1178 1941 
L 800 0 
L 225 0 
L 1172 4863 
L 1747 4863 
L 1375 2950 
Q 1594 3244 1934 3414 
Q 2275 3584 2650 3584 
Q 3113 3584 3367 3334 
Q 3622 3084 3622 2631 
Q 3622 2519 3608 2391 
Q 3594 2263 3566 2113 
z
" transform="scale(0.015625)"/>
       <path id="DejaVuSans-Oblique-65" d="M 3078 2063 
Q 3088 2113 3092 2166 
Q 3097 2219 3097 2272 
Q 3097 2653 2873 2875 
Q 2650 3097 2266 3097 
Q 1838 3097 1509 2826 
Q 1181 2556 1013 2059 
L 3078 2063 
z
M 3578 1613 
L 903 1613 
Q 884 1494 878 1425 
Q 872 1356 872 1306 
Q 872 872 1139 634 
Q 1406 397 1894 397 
Q 2269 397 2603 481 
Q 2938 566 3225 728 
L 3116 159 
Q 2806 34 2476 -28 
Q 2147 -91 1806 -91 
Q 1078 -91 686 257 
Q 294 606 294 1247 
Q 294 1794 489 2264 
Q 684 2734 1063 3103 
Q 1306 3334 1642 3459 
Q 1978 3584 2356 3584 
Q 2950 3584 3301 3228 
Q 3653 2872 3653 2272 
Q 3653 2128 3634 1964 
Q 3616 1800 3578 1613 
z
" transform="scale(0.015625)"/>
       <path id="DejaVuSans-Oblique-61" d="M 3438 1997 
L 3047 0 
L 2472 0 
L 2578 531 
Q 2325 219 2001 64 
Q 1678 -91 1281 -91 
Q 834 -91 548 182 
Q 263 456 263 884 
Q 263 1497 752 1853 
Q 1241 2209 2100 2209 
L 2900 2209 
L 2931 2363 
Q 2938 2388 2941 2417 
Q 2944 2447 2944 2509 
Q 2944 2788 2717 2942 
Q 2491 3097 2081 3097 
Q 1800 3097 1504 3025 
Q 1209 2953 897 2809 
L 997 3341 
Q 1322 3463 1633 3523 
Q 1944 3584 2234 3584 
Q 2853 3584 3176 3315 
Q 3500 3047 3500 2534 
Q 3500 2431 3484 2292 
Q 3469 2153 3438 1997 
z
M 2816 1759 
L 2241 1759 
Q 1534 1759 1195 1570 
Q 856 1381 856 984 
Q 856 709 1029 553 
Q 1203 397 1509 397 
Q 1978 397 2328 733 
Q 2678 1069 2791 1631 
L 2816 1759 
z
" transform="scale(0.015625)"/>
       <path id="DejaVuSans-Oblique-74" d="M 2706 3500 
L 2619 3053 
L 1472 3053 
L 1100 1153 
Q 1081 1047 1072 975 
Q 1063 903 1063 863 
Q 1063 663 1183 572 
Q 1303 481 1569 481 
L 2150 481 
L 2053 0 
L 1503 0 
Q 991 0 739 200 
Q 488 400 488 806 
Q 488 878 497 964 
Q 506 1050 525 1153 
L 897 3053 
L 409 3053 
L 500 3500 
L 978 3500 
L 1172 4494 
L 1747 4494 
L 1556 3500 
L 2706 3500 
z
" transform="scale(0.015625)"/>
       <path id="DejaVuSans-4e" d="M 628 4666 
L 1478 4666 
L 3547 763 
L 3547 4666 
L 4159 4666 
L 4159 0 
L 3309 0 
L 1241 3903 
L 1241 0 
L 628 0 
L 628 4666 
z
" transform="scale(0.015625)"/>
       <path id="DejaVuSans-2f" d="M 1625 4666 
L 2156 4666 
L 531 -594 
L 0 -594 
L 1625 4666 
z
" transform="scale(0.015625)"/>
       <path id="DejaVuSans-5e" d="M 2988 4666 
L 4684 2925 
L 4056 2925 
L 2681 4159 
L 1306 2925 
L 678 2925 
L 2375 4666 
L 2988 4666 
z
" transform="scale(0.015625)"/>
      </defs>
      <use xlink:href="#DejaVuSans-Oblique-73" transform="translate(0 0.015625)"/>
      <use xlink:href="#DejaVuSans-Oblique-68" transform="translate(52.099609 0.015625)"/>
      <use xlink:href="#DejaVuSans-Oblique-65" transform="translate(115.478516 0.015625)"/>
      <use xlink:href="#DejaVuSans-Oblique-61" transform="translate(177.001953 0.015625)"/>
      <use xlink:href="#DejaVuSans-Oblique-72" transform="translate(238.28125 0.015625)"/>
      <use xlink:href="#DejaVuSans-Oblique-73" transform="translate(279.394531 0.015625)"/>
      <use xlink:href="#DejaVuSans-Oblique-74" transform="translate(331.494141 0.015625)"/>
      <use xlink:href="#DejaVuSans-Oblique-72" transform="translate(370.703125 0.015625)"/>
      <use xlink:href="#DejaVuSans-Oblique-65" transform="translate(411.816406 0.015625)"/>
      <use xlink:href="#DejaVuSans-Oblique-73" transform="translate(473.339844 0.015625)"/>
      <use xlink:href="#DejaVuSans-Oblique-73" transform="translate(525.439453 0.015625)"/>
      <use xlink:href="#DejaVuSans-20" transform="translate(577.539062 0.015625)"/>
      <use xlink:href="#DejaVuSans-28" transform="translate(609.326172 0.015625)"/>
      <use xlink:href="#DejaVuSans-4e" transform="translate(648.339844 0.015625)"/>
      <use xlink:href="#DejaVuSans-2f" transform="translate(723.144531 0.015625)"/>
      <use xlink:href="#DejaVuSans-6d" transform="translate(756.835938 0.015625)"/>
      <use xlink:href="#DejaVuSans-5e" transform="translate(854.248047 0.015625)"/>
      <use xlink:href="#DejaVuSans-32" transform="translate(938.037109 0.015625)"/>
      <use xlink:href="#DejaVuSans-29" transform="translate(1001.660156 0.015625)"/>
     </g>
    </g>
   </g>
   <g id="line2d_27">
    <path d="M 100.272443 169.124724 
L 100.476755 169.047099 
L 101.089486 168.834748 
L 102.110019 168.470067 
L 103.537326 167.905341 
L 105.369971 167.174464 
L 107.606106 166.274854 
L 110.243482 165.203779 
L 113.279443 163.958408 
L 116.710931 162.535883 
L 120.534491 160.933404 
L 124.746274 159.148292 
L 129.342038 157.178086 
L 134.317156 155.020661 
L 139.666619 152.674293 
L 145.385039 150.137817 
L 151.46666 147.410734 
L 157.905356 144.493339 
L 164.694646 141.386889 
L 171.827692 138.093661 
L 179.297313 134.616573 
L 187.095987 130.959181 
L 195.215862 127.126605 
L 203.648761 123.125816 
L 212.386194 118.965569 
L 221.419361 114.656807 
L 230.739169 110.212553 
L 240.336233 105.647683 
L 250.200888 100.979108 
L 260.323203 96.226373 
L 270.692985 91.41112 
L 281.299792 86.556397 
L 292.132944 81.687537 
L 303.181534 76.832102 
L 314.434436 72.016885 
L 325.88032 67.269988 
L 337.50766 62.624373 
L 349.304749 58.116431 
L 361.259707 53.785386 
L 373.360499 49.671298 
L 385.594938 45.817975 
L 397.950706 42.270829 
L 410.415362 39.074172 
L 422.976355 36.274517 
L 435.621037 33.919262 
L 448.336676 32.055562 
L 461.110468 30.730732 
L 473.929552 29.991423 
L 486.781018 29.88 
L 499.651928 30.438539 
L 512.529322 31.709747 
L 525.400232 33.73165 
L 538.251698 36.536344 
L 551.070782 40.150995 
L 563.844574 44.597739 
L 576.560213 49.891621 
L 589.204895 56.042254 
L 601.765888 63.053495 
L 614.230544 70.919659 
L 626.586312 79.628565 
L 638.820751 89.163463 
L 650.921543 99.50033 
L 662.876501 110.60624 
L 674.67359 122.440317 
L 686.30093 134.954694 
L 697.746814 148.092941 
L 708.999716 161.794996 
L 720.048306 175.997296 
L 730.881458 190.630494 
L 741.488265 205.619075 
L 751.858047 220.883515 
L 761.980362 236.343561 
L 771.845017 251.916542 
L 781.442081 267.517475 
L 790.761889 283.059262 
L 799.795056 298.458961 
L 808.532489 313.633597 
L 816.965388 328.500246 
L 825.085263 342.982443 
L 832.883937 357.004082 
L 840.353558 370.494629 
L 847.486604 383.391262 
L 854.275894 395.634062 
L 860.71459 407.170111 
L 866.796211 417.953226 
L 872.514631 427.944089 
L 877.864094 437.111276 
L 882.839212 445.430463 
L 887.434976 452.885251 
L 891.646759 459.467239 
L 895.470319 465.176064 
L 898.901807 470.021902 
L 901.937768 474.027977 
L 904.575144 477.22961 
L 906.811279 479.674479 
L 908.643924 481.425769 
L 910.071231 482.564938 
L 911.091764 483.195338 
L 911.704495 483.448542 
L 911.908807 483.48 
" clip-path="url(#p1d0188999b)" style="fill: none; stroke: #1f77b4; stroke-width: 1.5; stroke-linecap: square"/>
    <defs>
     <path id="mf6e234c230" d="M -3 3 
L 3 -3 
M -3 -3 
L 3 3 
" style="stroke: #1f77b4"/>
    </defs>
    <g clip-path="url(#p1d0188999b)">
     <use xlink:href="#mf6e234c230" x="100.272443" y="169.124724" style="fill: #1f77b4; stroke: #1f77b4"/>
     <use xlink:href="#mf6e234c230" x="100.476755" y="169.047099" style="fill: #1f77b4; stroke: #1f77b4"/>
     <use xlink:href="#mf6e234c230" x="101.089486" y="168.834748" style="fill: #1f77b4; stroke: #1f77b4"/>
     <use xlink:href="#mf6e234c230" x="102.110019" y="168.470067" style="fill: #1f77b4; stroke: #1f77b4"/>
     <use xlink:href="#mf6e234c230" x="103.537326" y="167.905341" style="fill: #1f77b4; stroke: #1f77b4"/>
     <use xlink:href="#mf6e234c230" x="105.369971" y="167.174464" style="fill: #1f77b4; stroke: #1f77b4"/>
     <use xlink:href="#mf6e234c230" x="107.606106" y="166.274854" style="fill: #1f77b4; stroke: #1f77b4"/>
     <use xlink:href="#mf6e234c230" x="110.243482" y="165.203779" style="fill: #1f77b4; stroke: #1f77b4"/>
     <use xlink:href="#mf6e234c230" x="113.279443" y="163.958408" style="fill: #1f77b4; stroke: #1f77b4"/>
     <use xlink:href="#mf6e234c230" x="116.710931" y="162.535883" style="fill: #1f77b4; stroke: #1f77b4"/>
     <use xlink:href="#mf6e234c230" x="120.534491" y="160.933404" style="fill: #1f77b4; stroke: #1f77b4"/>
     <use xlink:href="#mf6e234c230" x="124.746274" y="159.148292" style="fill: #1f77b4; stroke: #1f77b4"/>
     <use xlink:href="#mf6e234c230" x="129.342038" y="157.178086" style="fill: #1f77b4; stroke: #1f77b4"/>
     <use xlink:href="#mf6e234c230" x="134.317156" y="155.020661" style="fill: #1f77b4; stroke: #1f77b4"/>
     <use xlink:href="#mf6e234c230" x="139.666619" y="152.674293" style="fill: #1f77b4; stroke: #1f77b4"/>
     <use xlink:href="#mf6e234c230" x="145.385039" y="150.137817" style="fill: #1f77b4; stroke: #1f77b4"/>
     <use xlink:href="#mf6e234c230" x="151.46666" y="147.410734" style="fill: #1f77b4; stroke: #1f77b4"/>
     <use xlink:href="#mf6e234c230" x="157.905356" y="144.493339" style="fill: #1f77b4; stroke: #1f77b4"/>
     <use xlink:href="#mf6e234c230" x="164.694646" y="141.386889" style="fill: #1f77b4; stroke: #1f77b4"/>
     <use xlink:href="#mf6e234c230" x="171.827692" y="138.093661" style="fill: #1f77b4; stroke: #1f77b4"/>
     <use xlink:href="#mf6e234c230" x="179.297313" y="134.616573" style="fill: #1f77b4; stroke: #1f77b4"/>
     <use xlink:href="#mf6e234c230" x="187.095987" y="130.959181" style="fill: #1f77b4; stroke: #1f77b4"/>
     <use xlink:href="#mf6e234c230" x="195.215862" y="127.126605" style="fill: #1f77b4; stroke: #1f77b4"/>
     <use xlink:href="#mf6e234c230" x="203.648761" y="123.125816" style="fill: #1f77b4; stroke: #1f77b4"/>
     <use xlink:href="#mf6e234c230" x="212.386194" y="118.965569" style="fill: #1f77b4; stroke: #1f77b4"/>
     <use xlink:href="#mf6e234c230" x="221.419361" y="114.656807" style="fill: #1f77b4; stroke: #1f77b4"/>
     <use xlink:href="#mf6e234c230" x="230.739169" y="110.212553" style="fill: #1f77b4; stroke: #1f77b4"/>
     <use xlink:href="#mf6e234c230" x="240.336233" y="105.647683" style="fill: #1f77b4; stroke: #1f77b4"/>
     <use xlink:href="#mf6e234c230" x="250.200888" y="100.979108" style="fill: #1f77b4; stroke: #1f77b4"/>
     <use xlink:href="#mf6e234c230" x="260.323203" y="96.226373" style="fill: #1f77b4; stroke: #1f77b4"/>
     <use xlink:href="#mf6e234c230" x="270.692985" y="91.41112" style="fill: #1f77b4; stroke: #1f77b4"/>
     <use xlink:href="#mf6e234c230" x="281.299792" y="86.556397" style="fill: #1f77b4; stroke: #1f77b4"/>
     <use xlink:href="#mf6e234c230" x="292.132944" y="81.687537" style="fill: #1f77b4; stroke: #1f77b4"/>
     <use xlink:href="#mf6e234c230" x="303.181534" y="76.832102" style="fill: #1f77b4; stroke: #1f77b4"/>
     <use xlink:href="#mf6e234c230" x="314.434436" y="72.016885" style="fill: #1f77b4; stroke: #1f77b4"/>
     <use xlink:href="#mf6e234c230" x="325.88032" y="67.269988" style="fill: #1f77b4; stroke: #1f77b4"/>
     <use xlink:href="#mf6e234c230" x="337.50766" y="62.624373" style="fill: #1f77b4; stroke: #1f77b4"/>
     <use xlink:href="#mf6e234c230" x="349.304749" y="58.116431" style="fill: #1f77b4; stroke: #1f77b4"/>
     <use xlink:href="#mf6e234c230" x="361.259707" y="53.785386" style="fill: #1f77b4; stroke: #1f77b4"/>
     <use xlink:href="#mf6e234c230" x="373.360499" y="49.671298" style="fill: #1f77b4; stroke: #1f77b4"/>
     <use xlink:href="#mf6e234c230" x="385.594938" y="45.817975" style="fill: #1f77b4; stroke: #1f77b4"/>
     <use xlink:href="#mf6e234c230" x="397.950706" y="42.270829" style="fill: #1f77b4; stroke: #1f77b4"/>
     <use xlink:href="#mf6e234c230" x="410.415362" y="39.074172" style="fill: #1f77b4; stroke: #1f77b4"/>
     <use xlink:href="#mf6e234c230" x="422.976355" y="36.274517" style="fill: #1f77b4; stroke: #1f77b4"/>
     <use xlink:href="#mf6e234c230" x="435.621037" y="33.919262" style="fill: #1f77b4; stroke: #1f77b4"/>
     <use xlink:href="#mf6e234c230" x="448.336676" y="32.055562" style="fill: #1f77b4; stroke: #1f77b4"/>
     <use xlink:href="#mf6e234c230" x="461.110468" y="30.730732" style="fill: #1f77b4; stroke: #1f77b4"/>
     <use xlink:href="#mf6e234c230" x="473.929552" y="29.991423" style="fill: #1f77b4; stroke: #1f77b4"/>
     <use xlink:href="#mf6e234c230" x="486.781018" y="29.88" style="fill: #1f77b4; stroke: #1f77b4"/>
     <use xlink:href="#mf6e234c230" x="499.651928" y="30.438539" style="fill: #1f77b4; stroke: #1f77b4"/>
     <use xlink:href="#mf6e234c230" x="512.529322" y="31.709747" style="fill: #1f77b4; stroke: #1f77b4"/>
     <use xlink:href="#mf6e234c230" x="525.400232" y="33.73165" style="fill: #1f77b4; stroke: #1f77b4"/>
     <use xlink:href="#mf6e234c230" x="538.251698" y="36.536344" style="fill: #1f77b4; stroke: #1f77b4"/>
     <use xlink:href="#mf6e234c230" x="551.070782" y="40.150995" style="fill: #1f77b4; stroke: #1f77b4"/>
     <use xlink:href="#mf6e234c230" x="563.844574" y="44.597739" style="fill: #1f77b4; stroke: #1f77b4"/>
     <use xlink:href="#mf6e234c230" x="576.560213" y="49.891621" style="fill: #1f77b4; stroke: #1f77b4"/>
     <use xlink:href="#mf6e234c230" x="589.204895" y="56.042254" style="fill: #1f77b4; stroke: #1f77b4"/>
     <use xlink:href="#mf6e234c230" x="601.765888" y="63.053495" style="fill: #1f77b4; stroke: #1f77b4"/>
     <use xlink:href="#mf6e234c230" x="614.230544" y="70.919659" style="fill: #1f77b4; stroke: #1f77b4"/>
     <use xlink:href="#mf6e234c230" x="626.586312" y="79.628565" style="fill: #1f77b4; stroke: #1f77b4"/>
     <use xlink:href="#mf6e234c230" x="638.820751" y="89.163463" style="fill: #1f77b4; stroke: #1f77b4"/>
     <use xlink:href="#mf6e234c230" x="650.921543" y="99.50033" style="fill: #1f77b4; stroke: #1f77b4"/>
     <use xlink:href="#mf6e234c230" x="662.876501" y="110.60624" style="fill: #1f77b4; stroke: #1f77b4"/>
     <use xlink:href="#mf6e234c230" x="674.67359" y="122.440317" style="fill: #1f77b4; stroke: #1f77b4"/>
     <use xlink:href="#mf6e234c230" x="686.30093" y="134.954694" style="fill: #1f77b4; stroke: #1f77b4"/>
     <use xlink:href="#mf6e234c230" x="697.746814" y="148.092941" style="fill: #1f77b4; stroke: #1f77b4"/>
     <use xlink:href="#mf6e234c230" x="708.999716" y="161.794996" style="fill: #1f77b4; stroke: #1f77b4"/>
     <use xlink:href="#mf6e234c230" x="720.048306" y="175.997296" style="fill: #1f77b4; stroke: #1f77b4"/>
     <use xlink:href="#mf6e234c230" x="730.881458" y="190.630494" style="fill: #1f77b4; stroke: #1f77b4"/>
     <use xlink:href="#mf6e234c230" x="741.488265" y="205.619075" style="fill: #1f77b4; stroke: #1f77b4"/>
     <use xlink:href="#mf6e234c230" x="751.858047" y="220.883515" style="fill: #1f77b4; stroke: #1f77b4"/>
     <use xlink:href="#mf6e234c230" x="761.980362" y="236.343561" style="fill: #1f77b4; stroke: #1f77b4"/>
     <use xlink:href="#mf6e234c230" x="771.845017" y="251.916542" style="fill: #1f77b4; stroke: #1f77b4"/>
     <use xlink:href="#mf6e234c230" x="781.442081" y="267.517475" style="fill: #1f77b4; stroke: #1f77b4"/>
     <use xlink:href="#mf6e234c230" x="790.761889" y="283.059262" style="fill: #1f77b4; stroke: #1f77b4"/>
     <use xlink:href="#mf6e234c230" x="799.795056" y="298.458961" style="fill: #1f77b4; stroke: #1f77b4"/>
     <use xlink:href="#mf6e234c230" x="808.532489" y="313.633597" style="fill: #1f77b4; stroke: #1f77b4"/>
     <use xlink:href="#mf6e234c230" x="816.965388" y="328.500246" style="fill: #1f77b4; stroke: #1f77b4"/>
     <use xlink:href="#mf6e234c230" x="825.085263" y="342.982443" style="fill: #1f77b4; stroke: #1f77b4"/>
     <use xlink:href="#mf6e234c230" x="832.883937" y="357.004082" style="fill: #1f77b4; stroke: #1f77b4"/>
     <use xlink:href="#mf6e234c230" x="840.353558" y="370.494629" style="fill: #1f77b4; stroke: #1f77b4"/>
     <use xlink:href="#mf6e234c230" x="847.486604" y="383.391262" style="fill: #1f77b4; stroke: #1f77b4"/>
     <use xlink:href="#mf6e234c230" x="854.275894" y="395.634062" style="fill: #1f77b4; stroke: #1f77b4"/>
     <use xlink:href="#mf6e234c230" x="860.71459" y="407.170111" style="fill: #1f77b4; stroke: #1f77b4"/>
     <use xlink:href="#mf6e234c230" x="866.796211" y="417.953226" style="fill: #1f77b4; stroke: #1f77b4"/>
     <use xlink:href="#mf6e234c230" x="872.514631" y="427.944089" style="fill: #1f77b4; stroke: #1f77b4"/>
     <use xlink:href="#mf6e234c230" x="877.864094" y="437.111276" style="fill: #1f77b4; stroke: #1f77b4"/>
     <use xlink:href="#mf6e234c230" x="882.839212" y="445.430463" style="fill: #1f77b4; stroke: #1f77b4"/>
     <use xlink:href="#mf6e234c230" x="887.434976" y="452.885251" style="fill: #1f77b4; stroke: #1f77b4"/>
     <use xlink:href="#mf6e234c230" x="891.646759" y="459.467239" style="fill: #1f77b4; stroke: #1f77b4"/>
     <use xlink:href="#mf6e234c230" x="895.470319" y="465.176064" style="fill: #1f77b4; stroke: #1f77b4"/>
     <use xlink:href="#mf6e234c230" x="898.901807" y="470.021902" style="fill: #1f77b4; stroke: #1f77b4"/>
     <use xlink:href="#mf6e234c230" x="901.937768" y="474.027977" style="fill: #1f77b4; stroke: #1f77b4"/>
     <use xlink:href="#mf6e234c230" x="904.575144" y="477.22961" style="fill: #1f77b4; stroke: #1f77b4"/>
     <use xlink:href="#mf6e234c230" x="906.811279" y="479.674479" style="fill: #1f77b4; stroke: #1f77b4"/>
     <use xlink:href="#mf6e234c230" x="908.643924" y="481.425769" style="fill: #1f77b4; stroke: #1f77b4"/>
     <use xlink:href="#mf6e234c230" x="910.071231" y="482.564938" style="fill: #1f77b4; stroke: #1f77b4"/>
     <use xlink:href="#mf6e234c230" x="911.091764" y="483.195338" style="fill: #1f77b4; stroke: #1f77b4"/>
     <use xlink:href="#mf6e234c230" x="911.704495" y="483.448542" style="fill: #1f77b4; stroke: #1f77b4"/>
     <use xlink:href="#mf6e234c230" x="911.908807" y="483.48" style="fill: #1f77b4; stroke: #1f77b4"/>
    </g>
   </g>
   <g id="patch_3">
    <path d="M 59.690625 506.16 
L 59.690625 7.2 
" style="fill: none; stroke: #000000; stroke-width: 0.8; stroke-linejoin: miter; stroke-linecap: square"/>
   </g>
   <g id="patch_4">
    <path d="M 952.490625 506.16 
L 952.490625 7.2 
" style="fill: none; stroke: #000000; stroke-width: 0.8; stroke-linejoin: miter; stroke-linecap: square"/>
   </g>
   <g id="patch_5">
    <path d="M 59.690625 506.16 
L 952.490625 506.16 
" style="fill: none; stroke: #000000; stroke-width: 0.8; stroke-linejoin: miter; stroke-linecap: square"/>
   </g>
   <g id="patch_6">
    <path d="M 59.690625 7.2 
L 952.490625 7.2 
" style="fill: none; stroke: #000000; stroke-width: 0.8; stroke-linejoin: miter; stroke-linecap: square"/>
   </g>
  </g>
 </g>
 <defs>
  <clipPath id="p1d0188999b">
   <rect x="59.690625" y="7.2" width="892.8" height="498.96"/>
  </clipPath>
 </defs>
</svg>
